<?xml version="1.0" encoding="UTF-8" standalone="no"?><!DOCTYPE svg PUBLIC "-//W3C//DTD SVG 1.1//EN" "http://www.w3.org/Graphics/SVG/1.1/DTD/svg11.dtd"><svg width="100%" height="100%" viewBox="0 0 58 29" version="1.1" xmlns="http://www.w3.org/2000/svg" xmlns:xlink="http://www.w3.org/1999/xlink" xml:space="preserve" xmlns:serif="http://www.serif.com/" style="fill-rule:evenodd;clip-rule:evenodd;stroke-linejoin:round;stroke-miterlimit:1.41421;"><g><path d="M34,0.624c0.8,0.3 4.4,1.9 7.9,3.5c3.6,1.7 8.5,3.3 11,3.7l4.6,0.7l-0.1,6.1c-0.1,7.5 -2,12.7 -4.3,11.8c-3.7,-1.5 -7.2,-1.7 -8.6,-0.5c-0.8,0.6 -4,1.3 -7.2,1.5c-3.2,0.1 -7.1,0.6 -8.6,1c-2.3,0.6 -3.4,0.2 -5.8,-2.1c-1.6,-1.5 -2.9,-3.3 -2.9,-4c0,-0.6 -0.7,-1.7 -1.5,-2.4c-2.1,-1.8 -1.9,-5.3 0.6,-8.4c1.2,-1.5 1.8,-3 1.4,-3.4c-0.4,-0.4 -4.6,-0.7 -9.4,-0.8c-9.1,-0.1 -11.1,-0.6 -11.1,-2.9c0,-2.8 7.6,-4.5 20.3,-4.4c6.7,0 12.9,0.3 13.7,0.6Z"/><path d="M6.1,2.824c-1.9,0.3 -3.6,1.2 -3.9,1.9c-0.3,0.9 1.1,1 5.5,0.6c3.2,-0.3 7.8,-0.1 10.3,0.6c2.5,0.6 5.3,1.1 6.3,1.1c1.4,0 1,1 -2.2,4.4c-2.5,2.8 -3.8,5 -3.5,6c0.7,1.8 2,1.9 3.1,0.2c1.2,-1.9 6.4,-4.9 7.1,-4.1c0.4,0.4 0.2,0.9 -0.5,1.1c-3.1,1.1 -6.3,4.6 -6.3,6.9c0,3 0.5,3 4.6,-0.1c1.8,-1.4 3.7,-2.5 4.3,-2.5c2.2,0 1,1.6 -2.4,3.4c-3.3,1.8 -4.5,3.9 -2.7,4.9c0.4,0.3 2.4,-0.1 4.6,-0.8c2.1,-0.7 5.3,-1.1 7.1,-0.8c1.8,0.3 4.4,-0.1 6.1,-0.9c2,-1 4,-1.2 6.4,-0.7c1.9,0.4 3.9,0.4 4.3,0c0.4,-0.4 1.1,-4 1.4,-7.9l0.6,-7.2l-4.6,0c-3.1,0 -6.4,-1 -10.7,-3.2c-8.5,-4.3 -22.5,-5.5 -34.9,-2.9Z" style="fill:#fff;"/></g></svg>