<?xml version="1.0" encoding="UTF-8" standalone="no"?><!DOCTYPE svg PUBLIC "-//W3C//DTD SVG 1.1//EN" "http://www.w3.org/Graphics/SVG/1.1/DTD/svg11.dtd"><svg width="100%" height="100%" viewBox="0 0 118 84" version="1.1" xmlns="http://www.w3.org/2000/svg" xmlns:xlink="http://www.w3.org/1999/xlink" xml:space="preserve" xmlns:serif="http://www.serif.com/" style="fill-rule:evenodd;clip-rule:evenodd;stroke-linejoin:round;stroke-miterlimit:1.41421;"><g id="EYE"><g id="EYE-SHAPE" serif:id="EYE SHAPE"><g id="EYE-BACK" serif:id="EYE BACK"><rect x="7.028" y="37.333" width="104.076" height="9.753" style="fill:#fff;"/><path d="M6.896,39.692c0,0 0.51,-1.003 1.432,-2.819c9.987,-19.671 30.477,-31.763 52.525,-30.998c22.048,0.765 41.65,14.248 50.25,34.564c0,0.001 0.001,0.002 0.001,0.002" style="fill:#fff;"/><path d="M59.058,2.366l0.273,0.001l0.274,0.003l0.273,0.004l0.274,0.005l0.273,0.007l0.274,0.007l0.274,0.009l0.274,0.01l0.274,0.012l0.273,0.012l0.274,0.014l0.273,0.015l0.273,0.016l0.272,0.018l0.272,0.019l0.272,0.02l0.272,0.021l0.272,0.022l0.271,0.024l0.271,0.024l0.271,0.026l0.27,0.028l0.27,0.028l0.27,0.03l0.269,0.03l0.27,0.032l0.269,0.034l0.268,0.034l0.269,0.035l0.268,0.037l0.267,0.038l0.268,0.039l0.267,0.041l0.267,0.041l0.266,0.043l0.266,0.044l0.266,0.045l0.266,0.046l0.265,0.047l0.265,0.049l0.264,0.049l0.264,0.051l0.264,0.052l0.263,0.053l0.263,0.054l0.263,0.056l0.262,0.056l0.262,0.058l0.262,0.059l0.261,0.06l0.261,0.061l0.26,0.063l0.26,0.063l0.26,0.065l0.259,0.065l0.259,0.067l0.259,0.068l0.258,0.069l0.258,0.07l0.257,0.072l0.257,0.072l0.256,0.074l0.256,0.074l0.256,0.076l0.255,0.077l0.255,0.078l0.254,0.079l0.254,0.08l0.254,0.082l0.253,0.082l0.252,0.084l0.252,0.084l0.252,0.086l0.251,0.087l0.251,0.087l0.25,0.089l0.25,0.09l0.25,0.091l0.249,0.093l0.248,0.093l0.248,0.094l0.248,0.096l0.247,0.096l0.246,0.098l0.246,0.098l0.246,0.1l0.245,0.1l0.244,0.102l0.244,0.103l0.244,0.104l0.243,0.105l0.243,0.106l0.242,0.107l0.241,0.108l0.241,0.109l0.241,0.11l0.24,0.111l0.239,0.112l0.239,0.114l0.238,0.114l0.238,0.115l0.237,0.117l0.237,0.117l0.236,0.118l0.236,0.12l0.235,0.12l0.234,0.121l0.234,0.123l0.233,0.123l0.233,0.125l0.232,0.125l0.232,0.127l0.231,0.127l0.23,0.128l0.23,0.13l0.23,0.13l0.228,0.132l0.229,0.132l0.227,0.134l0.227,0.134l0.226,0.135l0.226,0.137l0.225,0.137l0.224,0.138l0.224,0.14l0.224,0.14l0.222,0.141l0.222,0.142l0.221,0.144l0.221,0.144l0.22,0.145l0.22,0.146l0.219,0.147l0.218,0.148l0.217,0.149l0.217,0.149l0.216,0.151l0.216,0.152l0.214,0.153l0.215,0.153l0.213,0.155l0.213,0.155l0.212,0.157l0.212,0.157l0.21,0.158l0.211,0.16l0.209,0.16l0.209,0.161l0.208,0.162l0.207,0.163l0.207,0.164l0.206,0.164l0.205,0.166l0.205,0.167l0.203,0.167l0.204,0.169l0.202,0.169l0.202,0.17l0.201,0.171l0.2,0.172l0.199,0.173l0.199,0.174l0.198,0.174l0.197,0.176l0.197,0.176l0.195,0.178l0.195,0.178l0.195,0.179l0.193,0.18l0.193,0.181l0.192,0.182l0.191,0.182l0.19,0.183l0.19,0.185l0.189,0.185l0.188,0.186l0.187,0.187l0.187,0.188l0.185,0.188l0.185,0.19l0.184,0.19l0.184,0.191l0.182,0.192l0.182,0.193l0.181,0.194l0.18,0.194l0.179,0.196l0.178,0.196l0.178,0.197l0.177,0.198l0.176,0.198l0.175,0.2l0.174,0.2l0.173,0.201l0.173,0.202l0.172,0.203l0.171,0.204l0.17,0.204l0.169,0.205l0.168,0.206l0.168,0.207l0.166,0.208l0.166,0.208l0.165,0.209l0.164,0.21l0.163,0.211l0.162,0.212l0.161,0.212l0.161,0.213l0.159,0.214l0.159,0.215l0.158,0.216l0.156,0.216l0.156,0.217l0.155,0.218l0.154,0.219l0.154,0.219l0.152,0.22l0.151,0.221l0.151,0.222l0.149,0.222l0.148,0.224l0.148,0.224l0.147,0.224l0.145,0.226l0.145,0.226l0.144,0.227l0.143,0.228l0.142,0.228l0.141,0.229l0.14,0.23l0.139,0.231l0.138,0.231l0.137,0.232l0.136,0.233l0.135,0.234l0.134,0.234l0.134,0.235l0.132,0.236l0.131,0.236l0.13,0.238l0.129,0.237l0.128,0.239l0.128,0.239l0.126,0.24l0.125,0.241l0.124,0.241l0.123,0.243l0.122,0.242l0.121,0.244l0.12,0.244l0.12,0.245l0.118,0.245l0.117,0.247l0.115,0.246l0.115,0.248l0.114,0.248l0.113,0.249l0.111,0.25l0.111,0.25l0.11,0.251l0.108,0.252l0.105,0.246l1.36,3.202l-6.396,2.716l-1.358,-3.198l-0.098,-0.229l-0.096,-0.222l-0.097,-0.222l-0.098,-0.222l-0.099,-0.221l-0.099,-0.22l-0.101,-0.22l-0.102,-0.219l-0.102,-0.218l-0.104,-0.218l-0.104,-0.217l-0.105,-0.217l-0.107,-0.216l-0.107,-0.215l-0.108,-0.215l-0.109,-0.214l-0.11,-0.214l-0.11,-0.213l-0.112,-0.212l-0.112,-0.212l-0.114,-0.211l-0.114,-0.21l-0.115,-0.21l-0.116,-0.209l-0.117,-0.209l-0.118,-0.208l-0.119,-0.207l-0.119,-0.206l-0.12,-0.206l-0.122,-0.206l-0.122,-0.204l-0.123,-0.204l-0.123,-0.204l-0.125,-0.202l-0.126,-0.202l-0.126,-0.202l-0.127,-0.2l-0.128,-0.2l-0.129,-0.2l-0.13,-0.199l-0.13,-0.198l-0.132,-0.197l-0.132,-0.197l-0.133,-0.196l-0.134,-0.195l-0.134,-0.195l-0.136,-0.194l-0.136,-0.193l-0.137,-0.193l-0.138,-0.192l-0.139,-0.191l-0.139,-0.191l-0.14,-0.19l-0.141,-0.189l-0.142,-0.188l-0.143,-0.188l-0.143,-0.187l-0.144,-0.187l-0.146,-0.186l-0.145,-0.185l-0.147,-0.184l-0.147,-0.184l-0.148,-0.182l-0.149,-0.183l-0.15,-0.181l-0.15,-0.181l-0.151,-0.18l-0.152,-0.179l-0.153,-0.179l-0.153,-0.178l-0.154,-0.177l-0.155,-0.176l-0.156,-0.176l-0.156,-0.175l-0.157,-0.174l-0.158,-0.174l-0.158,-0.173l-0.16,-0.172l-0.16,-0.171l-0.16,-0.17l-0.162,-0.17l-0.162,-0.169l-0.163,-0.169l-0.163,-0.167l-0.164,-0.167l-0.165,-0.166l-0.166,-0.165l-0.166,-0.165l-0.167,-0.164l-0.168,-0.163l-0.168,-0.162l-0.17,-0.162l-0.169,-0.16l-0.171,-0.16l-0.171,-0.159l-0.172,-0.159l-0.172,-0.157l-0.173,-0.157l-0.174,-0.156l-0.175,-0.156l-0.175,-0.154l-0.176,-0.154l-0.176,-0.153l-0.177,-0.152l-0.178,-0.151l-0.178,-0.151l-0.179,-0.15l-0.18,-0.149l-0.18,-0.148l-0.181,-0.147l-0.182,-0.147l-0.182,-0.145l-0.183,-0.145l-0.183,-0.144l-0.184,-0.144l-0.185,-0.142l-0.185,-0.142l-0.186,-0.141l-0.187,-0.14l-0.187,-0.139l-0.188,-0.138l-0.188,-0.138l-0.189,-0.137l-0.189,-0.136l-0.19,-0.135l-0.191,-0.134l-0.191,-0.133l-0.192,-0.133l-0.193,-0.132l-0.193,-0.131l-0.193,-0.13l-0.194,-0.129l-0.195,-0.128l-0.195,-0.128l-0.196,-0.126l-0.196,-0.126l-0.197,-0.125l-0.198,-0.124l-0.198,-0.123l-0.198,-0.123l-0.2,-0.121l-0.199,-0.121l-0.2,-0.12l-0.201,-0.119l-0.202,-0.118l-0.201,-0.117l-0.203,-0.116l-0.202,-0.115l-0.204,-0.115l-0.204,-0.114l-0.204,-0.112l-0.205,-0.112l-0.205,-0.111l-0.206,-0.11l-0.207,-0.109l-0.207,-0.109l-0.207,-0.107l-0.208,-0.107l-0.208,-0.105l-0.209,-0.105l-0.21,-0.104l-0.209,-0.103l-0.211,-0.102l-0.211,-0.101l-0.211,-0.1l-0.212,-0.099l-0.212,-0.098l-0.213,-0.098l-0.213,-0.096l-0.213,-0.096l-0.215,-0.095l-0.214,-0.093l-0.215,-0.093l-0.215,-0.092l-0.216,-0.091l-0.217,-0.09l-0.216,-0.089l-0.218,-0.088l-0.217,-0.087l-0.218,-0.086l-0.219,-0.086l-0.219,-0.084l-0.219,-0.084l-0.22,-0.082l-0.22,-0.082l-0.22,-0.08l-0.221,-0.08l-0.222,-0.078l-0.221,-0.078l-0.223,-0.077l-0.222,-0.076l-0.223,-0.074l-0.224,-0.074l-0.223,-0.073l-0.225,-0.072l-0.224,-0.071l-0.225,-0.07l-0.225,-0.069l-0.226,-0.068l-0.226,-0.067l-0.226,-0.066l-0.227,-0.065l-0.227,-0.064l-0.228,-0.063l-0.228,-0.062l-0.228,-0.061l-0.229,-0.06l-0.229,-0.059l-0.229,-0.058l-0.229,-0.058l-0.23,-0.056l-0.231,-0.055l-0.23,-0.054l-0.231,-0.053l-0.232,-0.052l-0.231,-0.051l-0.232,-0.05l-0.233,-0.049l-0.232,-0.048l-0.233,-0.047l-0.233,-0.046l-0.234,-0.045l-0.234,-0.044l-0.234,-0.043l-0.234,-0.042l-0.235,-0.04l-0.235,-0.04l-0.236,-0.039l-0.235,-0.038l-0.236,-0.036l-0.236,-0.036l-0.237,-0.035l-0.237,-0.033l-0.237,-0.033l-0.237,-0.031l-0.238,-0.031l-0.238,-0.029l-0.238,-0.028l-0.238,-0.028l-0.239,-0.026l-0.239,-0.025l-0.239,-0.024l-0.24,-0.023l-0.239,-0.022l-0.24,-0.021l-0.241,-0.019l-0.24,-0.019l-0.241,-0.018l-0.241,-0.016l-0.241,-0.016l-0.241,-0.014l-0.242,-0.014l-0.242,-0.012l-0.242,-0.011l-0.242,-0.01l-0.243,-0.009l-0.242,-0.008l-0.243,-0.007l-0.242,-0.005l-0.242,-0.005l-0.242,-0.003l-0.242,-0.003l-0.242,-0.001l-0.241,0l-0.241,0.001l-0.242,0.002l-0.241,0.003l-0.24,0.004l-0.241,0.005l-0.241,0.007l-0.24,0.007l-0.24,0.009l-0.24,0.009l-0.24,0.011l-0.239,0.012l-0.24,0.012l-0.239,0.014l-0.239,0.015l-0.239,0.016l-0.238,0.017l-0.238,0.018l-0.239,0.019l-0.238,0.021l-0.237,0.021l-0.238,0.022l-0.237,0.024l-0.237,0.024l-0.237,0.026l-0.236,0.026l-0.237,0.028l-0.236,0.029l-0.236,0.029l-0.235,0.031l-0.236,0.032l-0.235,0.033l-0.235,0.033l-0.234,0.035l-0.235,0.036l-0.234,0.037l-0.234,0.038l-0.233,0.039l-0.234,0.04l-0.233,0.041l-0.232,0.042l-0.233,0.043l-0.232,0.044l-0.232,0.046l-0.232,0.046l-0.231,0.047l-0.231,0.048l-0.231,0.049l-0.23,0.05l-0.23,0.052l-0.23,0.052l-0.23,0.053l-0.229,0.054l-0.229,0.055l-0.229,0.056l-0.228,0.058l-0.228,0.058l-0.227,0.059l-0.228,0.06l-0.227,0.061l-0.226,0.062l-0.227,0.064l-0.226,0.064l-0.225,0.065l-0.225,0.066l-0.225,0.067l-0.225,0.068l-0.224,0.069l-0.224,0.07l-0.224,0.071l-0.223,0.072l-0.222,0.072l-0.223,0.074l-0.222,0.075l-0.221,0.076l-0.222,0.077l-0.221,0.077l-0.22,0.079l-0.22,0.079l-0.22,0.081l-0.219,0.081l-0.219,0.083l-0.219,0.083l-0.218,0.085l-0.218,0.085l-0.217,0.086l-0.217,0.087l-0.216,0.088l-0.216,0.089l-0.216,0.09l-0.215,0.091l-0.215,0.092l-0.214,0.093l-0.214,0.094l-0.214,0.094l-0.213,0.096l-0.213,0.096l-0.212,0.098l-0.211,0.098l-0.212,0.099l-0.211,0.1l-0.21,0.101l-0.21,0.102l-0.209,0.103l-0.209,0.104l-0.209,0.105l-0.208,0.105l-0.207,0.107l-0.207,0.107l-0.207,0.108l-0.206,0.11l-0.206,0.11l-0.205,0.111l-0.204,0.112l-0.205,0.112l-0.203,0.114l-0.203,0.115l-0.203,0.115l-0.202,0.116l-0.202,0.118l-0.201,0.118l-0.2,0.119l-0.2,0.119l-0.2,0.121l-0.199,0.122l-0.198,0.122l-0.198,0.123l-0.197,0.125l-0.197,0.125l-0.197,0.126l-0.196,0.126l-0.195,0.128l-0.194,0.129l-0.194,0.129l-0.194,0.13l-0.193,0.131l-0.192,0.132l-0.192,0.133l-0.192,0.134l-0.19,0.134l-0.191,0.135l-0.189,0.136l-0.189,0.137l-0.188,0.138l-0.188,0.139l-0.187,0.139l-0.187,0.141l-0.186,0.141l-0.185,0.142l-0.185,0.143l-0.184,0.143l-0.184,0.145l-0.183,0.145l-0.182,0.146l-0.182,0.147l-0.181,0.148l-0.181,0.148l-0.18,0.15l-0.179,0.15l-0.179,0.151l-0.178,0.152l-0.177,0.153l-0.177,0.153l-0.176,0.154l-0.175,0.155l-0.175,0.156l-0.174,0.157l-0.174,0.157l-0.172,0.158l-0.172,0.159l-0.172,0.16l-0.171,0.161l-0.17,0.161l-0.169,0.162l-0.169,0.163l-0.168,0.164l-0.168,0.164l-0.166,0.166l-0.166,0.166l-0.166,0.167l-0.164,0.167l-0.164,0.169l-0.163,0.169l-0.163,0.17l-0.162,0.17l-0.161,0.172l-0.16,0.172l-0.16,0.173l-0.159,0.174l-0.158,0.174l-0.158,0.175l-0.156,0.176l-0.157,0.177l-0.155,0.178l-0.154,0.178l-0.154,0.179l-0.153,0.18l-0.153,0.18l-0.151,0.181l-0.151,0.182l-0.15,0.183l-0.15,0.183l-0.148,0.184l-0.148,0.185l-0.147,0.186l-0.146,0.186l-0.146,0.187l-0.144,0.188l-0.144,0.189l-0.144,0.189l-0.142,0.19l-0.141,0.191l-0.141,0.191l-0.14,0.192l-0.139,0.193l-0.139,0.194l-0.138,0.194l-0.136,0.195l-0.136,0.196l-0.135,0.196l-0.135,0.197l-0.133,0.198l-0.133,0.198l-0.132,0.2l-0.131,0.2l-0.13,0.2l-0.13,0.201l-0.128,0.202l-0.128,0.203l-0.127,0.203l-0.126,0.204l-0.125,0.205l-0.125,0.206l-0.123,0.206l-0.123,0.206l-0.122,0.208l-0.12,0.208l-0.12,0.209l-0.12,0.209l-0.118,0.211l-0.117,0.21l-0.117,0.212l-0.116,0.212l-0.115,0.213l-0.114,0.213l-0.113,0.215l-0.112,0.214l-0.111,0.216l-0.112,0.22l-3.002,5.913l-6.197,-3.146l3.006,-5.92l0.123,-0.241l0.126,-0.243l0.127,-0.243l0.127,-0.242l0.129,-0.241l0.13,-0.241l0.131,-0.24l0.131,-0.239l0.133,-0.238l0.134,-0.238l0.134,-0.236l0.136,-0.236l0.137,-0.236l0.137,-0.234l0.139,-0.234l0.14,-0.233l0.14,-0.232l0.142,-0.231l0.142,-0.231l0.144,-0.23l0.144,-0.229l0.146,-0.228l0.146,-0.228l0.147,-0.227l0.148,-0.226l0.149,-0.225l0.151,-0.225l0.151,-0.223l0.151,-0.223l0.153,-0.222l0.154,-0.221l0.155,-0.221l0.155,-0.22l0.157,-0.218l0.157,-0.219l0.159,-0.217l0.159,-0.216l0.16,-0.216l0.161,-0.215l0.162,-0.214l0.163,-0.213l0.163,-0.212l0.165,-0.212l0.165,-0.211l0.167,-0.21l0.167,-0.209l0.168,-0.208l0.169,-0.207l0.169,-0.207l0.171,-0.206l0.171,-0.205l0.173,-0.204l0.173,-0.203l0.174,-0.202l0.174,-0.202l0.176,-0.201l0.177,-0.2l0.177,-0.199l0.178,-0.198l0.179,-0.197l0.18,-0.196l0.18,-0.196l0.182,-0.195l0.182,-0.194l0.183,-0.193l0.184,-0.192l0.184,-0.191l0.186,-0.19l0.186,-0.19l0.187,-0.189l0.187,-0.187l0.189,-0.187l0.189,-0.186l0.19,-0.185l0.191,-0.185l0.192,-0.183l0.192,-0.183l0.193,-0.181l0.194,-0.181l0.195,-0.179l0.195,-0.179l0.196,-0.178l0.197,-0.177l0.197,-0.177l0.199,-0.175l0.199,-0.174l0.2,-0.174l0.2,-0.172l0.201,-0.172l0.202,-0.171l0.203,-0.169l0.203,-0.169l0.204,-0.168l0.205,-0.167l0.206,-0.166l0.206,-0.166l0.207,-0.164l0.207,-0.163l0.209,-0.163l0.208,-0.161l0.21,-0.161l0.211,-0.159l0.21,-0.159l0.212,-0.157l0.212,-0.157l0.213,-0.156l0.214,-0.155l0.214,-0.154l0.215,-0.153l0.216,-0.152l0.216,-0.151l0.217,-0.15l0.217,-0.149l0.218,-0.148l0.219,-0.147l0.22,-0.146l0.22,-0.146l0.22,-0.144l0.222,-0.143l0.222,-0.143l0.222,-0.141l0.223,-0.14l0.224,-0.14l0.224,-0.138l0.225,-0.138l0.226,-0.136l0.226,-0.136l0.226,-0.134l0.228,-0.133l0.228,-0.133l0.228,-0.131l0.229,-0.131l0.23,-0.129l0.23,-0.129l0.231,-0.127l0.231,-0.127l0.232,-0.125l0.232,-0.125l0.233,-0.123l0.234,-0.123l0.234,-0.121l0.234,-0.12l0.235,-0.12l0.236,-0.118l0.236,-0.117l0.237,-0.117l0.237,-0.115l0.238,-0.114l0.238,-0.113l0.239,-0.112l0.24,-0.112l0.239,-0.11l0.241,-0.109l0.241,-0.108l0.241,-0.107l0.242,-0.106l0.242,-0.104l0.243,-0.104l0.243,-0.103l0.244,-0.102l0.244,-0.1l0.245,-0.1l0.245,-0.099l0.246,-0.097l0.246,-0.096l0.247,-0.096l0.247,-0.094l0.247,-0.093l0.248,-0.092l0.249,-0.091l0.248,-0.09l0.25,-0.089l0.25,-0.088l0.25,-0.087l0.25,-0.085l0.251,-0.085l0.252,-0.084l0.252,-0.082l0.252,-0.081l0.253,-0.08l0.253,-0.079l0.253,-0.078l0.254,-0.077l0.255,-0.076l0.254,-0.075l0.255,-0.073l0.256,-0.073l0.256,-0.071l0.256,-0.071l0.257,-0.069l0.257,-0.068l0.257,-0.067l0.258,-0.065l0.258,-0.065l0.259,-0.064l0.258,-0.062l0.26,-0.061l0.259,-0.06l0.26,-0.059l0.26,-0.058l0.261,-0.057l0.261,-0.056l0.261,-0.054l0.262,-0.053l0.262,-0.053l0.262,-0.051l0.263,-0.05l0.263,-0.048l0.263,-0.048l0.263,-0.046l0.264,-0.045l0.264,-0.045l0.265,-0.043l0.264,-0.041l0.265,-0.041l0.266,-0.039l0.265,-0.039l0.266,-0.037l0.266,-0.036l0.267,-0.034l0.267,-0.034l0.267,-0.032l0.267,-0.032l0.267,-0.03l0.268,-0.028l0.268,-0.028l0.269,-0.027l0.268,-0.025l0.269,-0.024l0.269,-0.023l0.269,-0.022l0.27,-0.02l0.269,-0.019l0.27,-0.018l0.27,-0.017l0.271,-0.016l0.27,-0.014l0.271,-0.014l0.271,-0.012l0.271,-0.011l0.272,-0.009l0.272,-0.009l0.271,-0.007l0.272,-0.006l0.273,-0.004l0.272,-0.004l0.273,-0.002l0.272,-0.001l0.273,0Z" style="fill:#464646;"/><path d="M7.028,42.743c0,0 0.725,1.452 2.011,4.027c9.804,19.627 30.13,31.757 52.059,31.068c21.928,-0.69 41.452,-14.072 50.004,-34.276c0.001,-0.002 0.002,-0.003 0.002,-0.003" style="fill:#fff;"/><path d="M12.146,45.214l0.11,0.219l0.109,0.215l0.11,0.214l0.111,0.213l0.112,0.213l0.113,0.213l0.113,0.211l0.115,0.211l0.115,0.211l0.117,0.209l0.117,0.209l0.118,0.208l0.119,0.208l0.119,0.207l0.121,0.206l0.121,0.206l0.123,0.205l0.123,0.204l0.124,0.204l0.125,0.203l0.125,0.202l0.127,0.201l0.127,0.201l0.128,0.2l0.129,0.2l0.13,0.199l0.131,0.198l0.131,0.197l0.133,0.197l0.133,0.196l0.134,0.195l0.135,0.195l0.135,0.194l0.137,0.193l0.137,0.192l0.138,0.192l0.139,0.191l0.139,0.19l0.14,0.19l0.142,0.189l0.141,0.188l0.143,0.188l0.144,0.186l0.144,0.187l0.145,0.185l0.146,0.184l0.146,0.184l0.148,0.184l0.148,0.182l0.149,0.182l0.149,0.181l0.15,0.18l0.152,0.179l0.151,0.179l0.153,0.178l0.153,0.177l0.154,0.177l0.155,0.176l0.156,0.175l0.156,0.174l0.157,0.174l0.158,0.172l0.158,0.172l0.159,0.172l0.16,0.17l0.16,0.17l0.162,0.169l0.162,0.168l0.162,0.168l0.164,0.166l0.164,0.166l0.165,0.165l0.165,0.165l0.166,0.163l0.167,0.163l0.167,0.162l0.169,0.162l0.168,0.16l0.17,0.16l0.17,0.159l0.171,0.158l0.171,0.157l0.173,0.157l0.172,0.156l0.174,0.155l0.174,0.154l0.175,0.153l0.175,0.153l0.176,0.152l0.177,0.151l0.177,0.15l0.178,0.149l0.179,0.149l0.179,0.148l0.18,0.147l0.18,0.146l0.181,0.145l0.182,0.145l0.182,0.143l0.183,0.143l0.184,0.142l0.184,0.142l0.185,0.14l0.185,0.14l0.186,0.138l0.186,0.138l0.187,0.137l0.188,0.137l0.188,0.135l0.189,0.135l0.19,0.133l0.19,0.133l0.19,0.132l0.191,0.131l0.192,0.131l0.192,0.129l0.193,0.129l0.193,0.128l0.194,0.127l0.195,0.126l0.195,0.125l0.195,0.125l0.196,0.123l0.197,0.123l0.197,0.122l0.198,0.12l0.198,0.12l0.199,0.12l0.199,0.118l0.2,0.117l0.2,0.117l0.201,0.116l0.201,0.114l0.202,0.114l0.202,0.113l0.203,0.113l0.203,0.111l0.204,0.11l0.204,0.11l0.205,0.108l0.205,0.108l0.206,0.107l0.206,0.106l0.207,0.105l0.207,0.104l0.208,0.103l0.208,0.102l0.208,0.102l0.209,0.1l0.21,0.1l0.21,0.098l0.21,0.098l0.211,0.097l0.211,0.096l0.212,0.095l0.212,0.094l0.213,0.093l0.213,0.092l0.213,0.092l0.214,0.09l0.214,0.089l0.215,0.089l0.215,0.087l0.216,0.087l0.216,0.086l0.216,0.085l0.217,0.083l0.217,0.083l0.218,0.082l0.218,0.081l0.218,0.08l0.219,0.079l0.219,0.079l0.22,0.077l0.219,0.076l0.221,0.075l0.221,0.075l0.221,0.073l0.221,0.072l0.222,0.072l0.222,0.07l0.222,0.07l0.223,0.068l0.223,0.068l0.224,0.066l0.224,0.066l0.224,0.065l0.225,0.063l0.225,0.063l0.225,0.062l0.226,0.06l0.226,0.06l0.226,0.059l0.227,0.057l0.226,0.057l0.228,0.056l0.227,0.055l0.228,0.054l0.228,0.052l0.229,0.052l0.229,0.051l0.229,0.05l0.229,0.048l0.23,0.048l0.23,0.047l0.23,0.046l0.231,0.044l0.231,0.044l0.231,0.043l0.231,0.042l0.232,0.04l0.232,0.04l0.232,0.038l0.233,0.038l0.232,0.037l0.233,0.035l0.234,0.035l0.233,0.033l0.234,0.033l0.234,0.031l0.234,0.03l0.235,0.03l0.235,0.028l0.235,0.027l0.235,0.027l0.235,0.025l0.236,0.024l0.236,0.023l0.236,0.022l0.237,0.021l0.236,0.02l0.237,0.019l0.237,0.018l0.237,0.016l0.238,0.016l0.238,0.015l0.237,0.013l0.238,0.013l0.239,0.011l0.238,0.01l0.239,0.01l0.238,0.008l0.239,0.007l0.239,0.006l0.24,0.005l0.239,0.004l0.24,0.003l0.24,0.001l0.24,0.001l0.24,0l0.241,-0.002l0.24,-0.003l0.241,-0.003l0.241,-0.005l0.241,-0.006l0.241,-0.007l0.241,-0.008l0.241,-0.009l0.24,-0.011l0.241,-0.011l0.24,-0.013l0.24,-0.013l0.24,-0.015l0.239,-0.016l0.239,-0.016l0.239,-0.018l0.239,-0.019l0.239,-0.02l0.238,-0.021l0.238,-0.022l0.238,-0.023l0.238,-0.025l0.237,-0.025l0.237,-0.026l0.237,-0.028l0.236,-0.028l0.237,-0.03l0.235,-0.03l0.236,-0.032l0.236,-0.033l0.235,-0.033l0.235,-0.035l0.234,-0.036l0.234,-0.037l0.235,-0.037l0.233,-0.039l0.234,-0.04l0.233,-0.041l0.233,-0.042l0.232,-0.043l0.232,-0.044l0.232,-0.045l0.232,-0.046l0.231,-0.047l0.231,-0.048l0.231,-0.049l0.23,-0.051l0.23,-0.051l0.23,-0.052l0.229,-0.053l0.229,-0.054l0.229,-0.055l0.228,-0.056l0.228,-0.057l0.228,-0.059l0.227,-0.059l0.227,-0.06l0.227,-0.061l0.226,-0.062l0.226,-0.063l0.226,-0.064l0.225,-0.065l0.225,-0.066l0.224,-0.067l0.224,-0.068l0.224,-0.069l0.223,-0.07l0.223,-0.071l0.223,-0.072l0.222,-0.073l0.222,-0.074l0.221,-0.074l0.221,-0.076l0.22,-0.077l0.221,-0.077l0.219,-0.079l0.22,-0.079l0.219,-0.081l0.218,-0.081l0.218,-0.083l0.218,-0.083l0.217,-0.084l0.217,-0.086l0.217,-0.086l0.216,-0.087l0.215,-0.088l0.215,-0.089l0.215,-0.09l0.214,-0.091l0.214,-0.091l0.213,-0.093l0.213,-0.094l0.213,-0.094l0.212,-0.096l0.212,-0.096l0.211,-0.097l0.21,-0.098l0.21,-0.099l0.21,-0.1l0.209,-0.101l0.209,-0.102l0.208,-0.103l0.208,-0.103l0.207,-0.105l0.207,-0.105l0.207,-0.107l0.205,-0.107l0.206,-0.108l0.205,-0.109l0.204,-0.11l0.204,-0.111l0.203,-0.111l0.203,-0.113l0.202,-0.113l0.202,-0.114l0.201,-0.116l0.201,-0.116l0.2,-0.117l0.2,-0.117l0.199,-0.119l0.199,-0.12l0.198,-0.12l0.197,-0.121l0.197,-0.122l0.197,-0.123l0.196,-0.124l0.195,-0.125l0.195,-0.125l0.194,-0.127l0.194,-0.127l0.193,-0.128l0.192,-0.129l0.192,-0.13l0.192,-0.13l0.191,-0.132l0.19,-0.132l0.19,-0.133l0.189,-0.134l0.188,-0.135l0.188,-0.135l0.188,-0.137l0.186,-0.137l0.186,-0.138l0.186,-0.139l0.185,-0.14l0.184,-0.14l0.184,-0.141l0.183,-0.143l0.182,-0.142l0.182,-0.144l0.182,-0.145l0.18,-0.145l0.18,-0.146l0.18,-0.147l0.178,-0.148l0.178,-0.149l0.178,-0.149l0.177,-0.15l0.176,-0.151l0.175,-0.152l0.175,-0.152l0.175,-0.154l0.173,-0.154l0.173,-0.155l0.172,-0.155l0.172,-0.157l0.171,-0.157l0.17,-0.158l0.17,-0.159l0.169,-0.159l0.168,-0.16l0.167,-0.161l0.167,-0.162l0.166,-0.163l0.166,-0.163l0.165,-0.164l0.164,-0.165l0.163,-0.166l0.163,-0.166l0.162,-0.167l0.161,-0.168l0.161,-0.169l0.16,-0.169l0.159,-0.17l0.158,-0.171l0.158,-0.171l0.157,-0.172l0.156,-0.173l0.156,-0.174l0.154,-0.175l0.154,-0.175l0.154,-0.176l0.152,-0.176l0.152,-0.178l0.151,-0.178l0.15,-0.179l0.15,-0.179l0.149,-0.18l0.148,-0.181l0.147,-0.182l0.147,-0.182l0.146,-0.183l0.145,-0.184l0.144,-0.185l0.143,-0.185l0.143,-0.186l0.142,-0.186l0.141,-0.187l0.14,-0.188l0.14,-0.189l0.138,-0.189l0.138,-0.19l0.138,-0.191l0.136,-0.191l0.135,-0.192l0.135,-0.193l0.134,-0.193l0.133,-0.195l0.132,-0.194l0.132,-0.196l0.131,-0.196l0.129,-0.196l0.129,-0.198l0.129,-0.198l0.127,-0.199l0.126,-0.199l0.126,-0.2l0.125,-0.201l0.124,-0.201l0.123,-0.202l0.122,-0.203l0.122,-0.203l0.12,-0.204l0.12,-0.205l0.119,-0.205l0.118,-0.206l0.117,-0.207l0.116,-0.207l0.115,-0.208l0.115,-0.208l0.114,-0.209l0.112,-0.21l0.112,-0.21l0.111,-0.211l0.11,-0.212l0.109,-0.212l0.109,-0.213l0.107,-0.213l0.107,-0.214l0.105,-0.215l0.105,-0.215l0.104,-0.216l0.102,-0.217l0.102,-0.217l0.102,-0.218l0.1,-0.218l0.099,-0.219l0.098,-0.219l0.097,-0.22l0.097,-0.221l0.095,-0.222l0.095,-0.222l1.347,-3.198l6.404,2.696l-1.352,3.212l-0.107,0.25l-0.108,0.251l-0.109,0.249l-0.11,0.249l-0.111,0.249l-0.112,0.247l-0.113,0.247l-0.115,0.247l-0.115,0.245l-0.117,0.245l-0.117,0.244l-0.118,0.244l-0.12,0.243l-0.12,0.242l-0.122,0.242l-0.122,0.241l-0.124,0.24l-0.125,0.239l-0.125,0.239l-0.127,0.238l-0.127,0.237l-0.129,0.237l-0.13,0.236l-0.13,0.235l-0.132,0.234l-0.132,0.234l-0.134,0.233l-0.134,0.233l-0.136,0.231l-0.136,0.231l-0.138,0.23l-0.138,0.23l-0.14,0.228l-0.14,0.228l-0.141,0.228l-0.142,0.226l-0.144,0.226l-0.144,0.225l-0.145,0.224l-0.146,0.223l-0.147,0.223l-0.148,0.222l-0.149,0.221l-0.149,0.221l-0.151,0.22l-0.152,0.219l-0.152,0.218l-0.153,0.217l-0.155,0.217l-0.155,0.216l-0.156,0.215l-0.157,0.214l-0.158,0.214l-0.159,0.212l-0.16,0.212l-0.16,0.212l-0.162,0.21l-0.162,0.21l-0.164,0.208l-0.164,0.208l-0.165,0.207l-0.166,0.207l-0.166,0.206l-0.168,0.204l-0.168,0.204l-0.17,0.204l-0.17,0.202l-0.171,0.202l-0.172,0.2l-0.172,0.2l-0.174,0.199l-0.174,0.199l-0.176,0.197l-0.176,0.197l-0.176,0.196l-0.178,0.195l-0.179,0.194l-0.179,0.193l-0.18,0.193l-0.181,0.191l-0.182,0.191l-0.182,0.19l-0.184,0.189l-0.184,0.188l-0.185,0.188l-0.185,0.186l-0.187,0.186l-0.187,0.185l-0.188,0.184l-0.189,0.183l-0.19,0.182l-0.19,0.182l-0.191,0.18l-0.192,0.18l-0.193,0.178l-0.193,0.178l-0.194,0.177l-0.195,0.177l-0.196,0.175l-0.197,0.174l-0.197,0.174l-0.198,0.172l-0.198,0.172l-0.2,0.171l-0.2,0.17l-0.201,0.169l-0.201,0.168l-0.202,0.167l-0.203,0.166l-0.204,0.166l-0.204,0.164l-0.206,0.164l-0.205,0.163l-0.207,0.161l-0.207,0.161l-0.208,0.16l-0.208,0.159l-0.21,0.158l-0.21,0.157l-0.21,0.157l-0.212,0.155l-0.212,0.154l-0.212,0.154l-0.214,0.152l-0.214,0.152l-0.214,0.15l-0.215,0.15l-0.216,0.149l-0.217,0.147l-0.217,0.147l-0.218,0.146l-0.219,0.145l-0.219,0.144l-0.219,0.143l-0.221,0.142l-0.221,0.141l-0.222,0.14l-0.222,0.139l-0.223,0.138l-0.223,0.138l-0.224,0.136l-0.225,0.135l-0.226,0.134l-0.226,0.134l-0.226,0.132l-0.227,0.131l-0.228,0.13l-0.228,0.13l-0.229,0.128l-0.23,0.127l-0.23,0.127l-0.231,0.125l-0.231,0.125l-0.232,0.123l-0.232,0.122l-0.233,0.121l-0.233,0.121l-0.234,0.119l-0.235,0.118l-0.235,0.118l-0.236,0.116l-0.236,0.115l-0.237,0.114l-0.237,0.114l-0.238,0.112l-0.238,0.111l-0.239,0.11l-0.24,0.109l-0.24,0.108l-0.24,0.107l-0.241,0.106l-0.241,0.105l-0.243,0.104l-0.242,0.102l-0.243,0.102l-0.244,0.101l-0.244,0.099l-0.244,0.099l-0.245,0.097l-0.246,0.097l-0.245,0.095l-0.247,0.095l-0.247,0.093l-0.247,0.092l-0.248,0.091l-0.248,0.09l-0.249,0.089l-0.249,0.088l-0.25,0.087l-0.25,0.086l-0.251,0.084l-0.251,0.084l-0.251,0.082l-0.252,0.081l-0.253,0.081l-0.252,0.079l-0.254,0.078l-0.253,0.077l-0.254,0.076l-0.255,0.075l-0.255,0.073l-0.255,0.073l-0.256,0.071l-0.256,0.07l-0.256,0.07l-0.257,0.068l-0.258,0.067l-0.257,0.065l-0.259,0.065l-0.258,0.064l-0.259,0.062l-0.259,0.061l-0.26,0.06l-0.26,0.059l-0.26,0.058l-0.261,0.057l-0.261,0.056l-0.262,0.054l-0.261,0.053l-0.263,0.053l-0.262,0.05l-0.263,0.05l-0.263,0.049l-0.264,0.048l-0.264,0.046l-0.264,0.045l-0.264,0.044l-0.265,0.043l-0.266,0.042l-0.265,0.04l-0.266,0.039l-0.266,0.038l-0.267,0.037l-0.266,0.036l-0.268,0.035l-0.267,0.033l-0.268,0.032l-0.268,0.031l-0.268,0.03l-0.268,0.029l-0.269,0.027l-0.269,0.027l-0.27,0.025l-0.269,0.023l-0.27,0.023l-0.27,0.021l-0.271,0.021l-0.271,0.019l-0.271,0.017l-0.271,0.017l-0.271,0.015l-0.272,0.014l-0.272,0.013l-0.272,0.012l-0.272,0.01l-0.273,0.01l-0.273,0.007l-0.272,0.007l-0.273,0.006l-0.272,0.004l-0.272,0.003l-0.272,0.002l-0.271,0l-0.272,-0.001l-0.271,-0.002l-0.272,-0.003l-0.271,-0.004l-0.27,-0.006l-0.271,-0.007l-0.27,-0.008l-0.271,-0.009l-0.27,-0.01l-0.27,-0.012l-0.269,-0.013l-0.269,-0.014l-0.27,-0.016l-0.269,-0.016l-0.268,-0.018l-0.269,-0.019l-0.268,-0.02l-0.268,-0.021l-0.268,-0.023l-0.267,-0.024l-0.268,-0.024l-0.267,-0.027l-0.267,-0.027l-0.266,-0.028l-0.266,-0.03l-0.266,-0.031l-0.266,-0.032l-0.266,-0.033l-0.265,-0.035l-0.265,-0.035l-0.265,-0.037l-0.264,-0.038l-0.264,-0.039l-0.264,-0.04l-0.263,-0.042l-0.264,-0.042l-0.262,-0.044l-0.263,-0.045l-0.262,-0.046l-0.262,-0.047l-0.262,-0.048l-0.261,-0.05l-0.261,-0.05l-0.261,-0.052l-0.26,-0.053l-0.26,-0.054l-0.26,-0.055l-0.26,-0.057l-0.259,-0.057l-0.258,-0.059l-0.259,-0.06l-0.258,-0.06l-0.257,-0.063l-0.257,-0.063l-0.257,-0.064l-0.257,-0.065l-0.256,-0.067l-0.256,-0.067l-0.255,-0.069l-0.255,-0.07l-0.255,-0.071l-0.254,-0.072l-0.254,-0.073l-0.254,-0.074l-0.253,-0.076l-0.252,-0.076l-0.253,-0.078l-0.251,-0.078l-0.252,-0.08l-0.251,-0.081l-0.251,-0.082l-0.25,-0.083l-0.25,-0.084l-0.249,-0.085l-0.249,-0.087l-0.248,-0.087l-0.248,-0.088l-0.248,-0.09l-0.247,-0.09l-0.247,-0.092l-0.246,-0.093l-0.246,-0.094l-0.245,-0.094l-0.245,-0.096l-0.245,-0.097l-0.243,-0.098l-0.244,-0.099l-0.243,-0.101l-0.243,-0.101l-0.242,-0.102l-0.241,-0.103l-0.241,-0.105l-0.241,-0.105l-0.24,-0.107l-0.239,-0.107l-0.239,-0.109l-0.239,-0.109l-0.238,-0.111l-0.238,-0.112l-0.237,-0.112l-0.236,-0.114l-0.236,-0.115l-0.236,-0.115l-0.235,-0.117l-0.234,-0.118l-0.234,-0.119l-0.233,-0.12l-0.233,-0.121l-0.232,-0.121l-0.232,-0.123l-0.231,-0.124l-0.231,-0.125l-0.23,-0.126l-0.229,-0.127l-0.229,-0.128l-0.229,-0.129l-0.227,-0.13l-0.228,-0.13l-0.226,-0.132l-0.226,-0.133l-0.226,-0.134l-0.224,-0.135l-0.225,-0.136l-0.223,-0.137l-0.223,-0.137l-0.223,-0.139l-0.222,-0.14l-0.221,-0.141l-0.221,-0.141l-0.22,-0.143l-0.219,-0.144l-0.219,-0.144l-0.218,-0.146l-0.218,-0.147l-0.216,-0.147l-0.217,-0.148l-0.215,-0.15l-0.215,-0.15l-0.215,-0.152l-0.213,-0.152l-0.213,-0.153l-0.213,-0.154l-0.211,-0.156l-0.211,-0.156l-0.211,-0.157l-0.209,-0.158l-0.209,-0.158l-0.209,-0.16l-0.208,-0.161l-0.206,-0.162l-0.207,-0.162l-0.205,-0.164l-0.205,-0.164l-0.205,-0.166l-0.203,-0.166l-0.203,-0.167l-0.202,-0.168l-0.201,-0.17l-0.201,-0.17l-0.2,-0.17l-0.199,-0.172l-0.199,-0.173l-0.198,-0.174l-0.197,-0.174l-0.196,-0.176l-0.196,-0.176l-0.194,-0.177l-0.195,-0.178l-0.193,-0.179l-0.193,-0.18l-0.191,-0.181l-0.192,-0.182l-0.19,-0.182l-0.19,-0.184l-0.188,-0.184l-0.188,-0.185l-0.188,-0.186l-0.186,-0.187l-0.186,-0.188l-0.185,-0.189l-0.184,-0.189l-0.183,-0.191l-0.183,-0.191l-0.181,-0.192l-0.181,-0.193l-0.18,-0.194l-0.18,-0.195l-0.178,-0.195l-0.178,-0.197l-0.177,-0.197l-0.176,-0.198l-0.175,-0.199l-0.175,-0.2l-0.173,-0.201l-0.173,-0.201l-0.172,-0.203l-0.171,-0.203l-0.17,-0.204l-0.169,-0.205l-0.169,-0.206l-0.168,-0.206l-0.166,-0.207l-0.166,-0.209l-0.165,-0.209l-0.164,-0.209l-0.164,-0.211l-0.162,-0.211l-0.162,-0.213l-0.16,-0.213l-0.16,-0.214l-0.159,-0.214l-0.158,-0.216l-0.157,-0.216l-0.156,-0.217l-0.156,-0.218l-0.154,-0.219l-0.153,-0.219l-0.153,-0.221l-0.152,-0.221l-0.15,-0.221l-0.15,-0.223l-0.149,-0.224l-0.148,-0.224l-0.147,-0.225l-0.146,-0.226l-0.145,-0.226l-0.144,-0.227l-0.143,-0.228l-0.143,-0.229l-0.141,-0.23l-0.14,-0.23l-0.14,-0.231l-0.138,-0.232l-0.137,-0.233l-0.137,-0.233l-0.135,-0.235l-0.135,-0.235l-0.133,-0.235l-0.133,-0.237l-0.131,-0.237l-0.131,-0.238l-0.129,-0.238l-0.129,-0.24l-0.128,-0.24l-0.126,-0.241l-0.126,-0.241l-0.124,-0.243l-0.124,-0.243l-0.12,-0.24l-3.566,-7.139l6.216,-3.105l3.563,7.132Z" style="fill:#464646;"/></g></g><circle id="PUPILE" cx="59" cy="40.791" r="19.708" style="fill:#1ef7b4;"/><path d="M59.144,18.401l0.145,0.001l0.144,0.003l0.143,0.003l0.144,0.004l0.143,0.005l0.143,0.006l0.143,0.007l0.143,0.007l0.143,0.009l0.142,0.009l0.142,0.011l0.142,0.011l0.142,0.012l0.141,0.013l0.141,0.014l0.141,0.015l0.141,0.016l0.14,0.016l0.14,0.017l0.14,0.019l0.14,0.019l0.139,0.02l0.139,0.021l0.139,0.021l0.139,0.023l0.138,0.023l0.138,0.024l0.138,0.026l0.137,0.025l0.137,0.027l0.137,0.028l0.137,0.028l0.136,0.029l0.136,0.031l0.135,0.03l0.136,0.032l0.135,0.033l0.135,0.033l0.134,0.034l0.134,0.035l0.134,0.036l0.133,0.037l0.133,0.037l0.133,0.038l0.132,0.039l0.132,0.04l0.132,0.04l0.132,0.042l0.135,0.043l0.257,0.085l0.259,0.09l0.258,0.093l0.257,0.096l0.255,0.099l0.254,0.102l0.252,0.104l0.25,0.108l0.249,0.111l0.247,0.114l0.246,0.116l0.244,0.12l0.242,0.122l0.241,0.125l0.239,0.128l0.237,0.131l0.235,0.133l0.234,0.137l0.231,0.139l0.23,0.141l0.228,0.145l0.226,0.147l0.225,0.149l0.222,0.152l0.22,0.155l0.219,0.157l0.216,0.16l0.215,0.163l0.212,0.165l0.21,0.167l0.209,0.17l0.206,0.172l0.204,0.175l0.202,0.177l0.2,0.179l0.197,0.182l0.195,0.184l0.194,0.187l0.191,0.188l0.188,0.191l0.187,0.193l0.184,0.196l0.182,0.197l0.179,0.2l0.177,0.202l0.175,0.204l0.172,0.206l0.17,0.208l0.167,0.211l0.165,0.212l0.162,0.215l0.16,0.216l0.158,0.218l0.154,0.221l0.153,0.222l0.149,0.224l0.147,0.227l0.145,0.228l0.141,0.229l0.139,0.232l0.136,0.234l0.134,0.235l0.131,0.237l0.128,0.239l0.125,0.241l0.122,0.242l0.119,0.244l0.117,0.245l0.114,0.248l0.111,0.249l0.107,0.25l0.105,0.252l0.102,0.254l0.099,0.255l0.096,0.257l0.093,0.258l0.089,0.259l0.086,0.257l0.043,0.135l0.041,0.132l0.041,0.131l0.04,0.133l0.039,0.132l0.038,0.133l0.037,0.133l0.037,0.133l0.036,0.134l0.035,0.134l0.034,0.134l0.033,0.135l0.033,0.135l0.031,0.135l0.031,0.136l0.03,0.136l0.03,0.136l0.028,0.137l0.028,0.137l0.026,0.137l0.026,0.137l0.025,0.138l0.025,0.138l0.023,0.138l0.022,0.139l0.022,0.138l0.021,0.139l0.02,0.14l0.019,0.14l0.018,0.14l0.018,0.14l0.016,0.14l0.016,0.141l0.015,0.141l0.014,0.141l0.013,0.141l0.012,0.142l0.011,0.142l0.01,0.142l0.01,0.142l0.008,0.143l0.008,0.142l0.007,0.143l0.006,0.143l0.005,0.144l0.004,0.143l0.003,0.144l0.002,0.144l0.002,0.144l0,0.145l0,0.144l-0.002,0.144l-0.002,0.144l-0.003,0.144l-0.004,0.144l-0.005,0.143l-0.006,0.143l-0.007,0.143l-0.008,0.143l-0.008,0.143l-0.01,0.142l-0.01,0.142l-0.011,0.142l-0.012,0.141l-0.013,0.142l-0.014,0.141l-0.015,0.141l-0.016,0.141l-0.016,0.14l-0.018,0.14l-0.018,0.14l-0.019,0.14l-0.02,0.139l-0.021,0.139l-0.022,0.139l-0.022,0.138l-0.023,0.139l-0.025,0.138l-0.025,0.137l-0.026,0.138l-0.026,0.137l-0.028,0.137l-0.028,0.136l-0.03,0.137l-0.03,0.136l-0.031,0.135l-0.031,0.136l-0.033,0.135l-0.033,0.134l-0.034,0.135l-0.035,0.134l-0.036,0.133l-0.037,0.134l-0.037,0.133l-0.038,0.133l-0.039,0.132l-0.04,0.132l-0.041,0.132l-0.041,0.131l-0.043,0.135l-0.086,0.257l-0.089,0.26l-0.093,0.258l-0.096,0.257l-0.099,0.255l-0.102,0.253l-0.105,0.252l-0.107,0.251l-0.111,0.249l-0.114,0.247l-0.117,0.246l-0.119,0.244l-0.122,0.242l-0.125,0.241l-0.128,0.238l-0.131,0.238l-0.134,0.235l-0.136,0.233l-0.139,0.232l-0.141,0.23l-0.145,0.228l-0.147,0.226l-0.149,0.224l-0.153,0.223l-0.154,0.22l-0.158,0.219l-0.16,0.216l-0.162,0.214l-0.165,0.213l-0.167,0.21l-0.17,0.208l-0.172,0.206l-0.175,0.205l-0.177,0.201l-0.179,0.2l-0.182,0.198l-0.184,0.195l-0.187,0.193l-0.188,0.191l-0.191,0.189l-0.193,0.186l-0.196,0.184l-0.198,0.182l-0.199,0.18l-0.202,0.177l-0.204,0.174l-0.206,0.173l-0.209,0.17l-0.21,0.167l-0.212,0.165l-0.215,0.162l-0.216,0.16l-0.219,0.157l-0.22,0.155l-0.222,0.152l-0.225,0.15l-0.226,0.147l-0.228,0.144l-0.23,0.142l-0.231,0.139l-0.234,0.136l-0.235,0.134l-0.237,0.13l-0.239,0.128l-0.241,0.125l-0.242,0.123l-0.244,0.119l-0.246,0.117l-0.247,0.114l-0.249,0.11l-0.25,0.108l-0.252,0.105l-0.254,0.102l-0.255,0.099l-0.257,0.096l-0.258,0.092l-0.259,0.09l-0.258,0.085l-0.135,0.044l-0.131,0.041l-0.132,0.041l-0.132,0.039l-0.132,0.039l-0.133,0.039l-0.133,0.037l-0.133,0.037l-0.134,0.035l-0.134,0.035l-0.134,0.034l-0.135,0.034l-0.135,0.032l-0.136,0.032l-0.135,0.031l-0.136,0.03l-0.136,0.029l-0.137,0.029l-0.137,0.027l-0.137,0.027l-0.137,0.026l-0.138,0.025l-0.138,0.024l-0.138,0.024l-0.139,0.022l-0.139,0.022l-0.139,0.021l-0.139,0.02l-0.14,0.019l-0.14,0.018l-0.14,0.017l-0.14,0.017l-0.141,0.016l-0.141,0.014l-0.141,0.014l-0.141,0.013l-0.142,0.012l-0.142,0.012l-0.142,0.01l-0.142,0.01l-0.143,0.008l-0.143,0.008l-0.142,0.007l-0.144,0.006l-0.143,0.005l-0.144,0.004l-0.144,0.003l-0.143,0.002l-0.145,0.002l-0.144,0l-0.144,0l-0.145,-0.002l-0.143,-0.002l-0.144,-0.003l-0.144,-0.004l-0.143,-0.005l-0.144,-0.006l-0.143,-0.007l-0.142,-0.008l-0.143,-0.008l-0.142,-0.01l-0.142,-0.01l-0.142,-0.012l-0.142,-0.012l-0.141,-0.013l-0.141,-0.014l-0.141,-0.014l-0.141,-0.016l-0.14,-0.017l-0.14,-0.017l-0.14,-0.018l-0.14,-0.019l-0.139,-0.02l-0.139,-0.021l-0.139,-0.022l-0.139,-0.022l-0.138,-0.024l-0.138,-0.024l-0.138,-0.025l-0.137,-0.026l-0.137,-0.027l-0.137,-0.027l-0.137,-0.029l-0.136,-0.029l-0.136,-0.03l-0.135,-0.031l-0.136,-0.032l-0.135,-0.032l-0.134,-0.033l-0.135,-0.035l-0.134,-0.035l-0.134,-0.035l-0.133,-0.037l-0.133,-0.037l-0.133,-0.039l-0.132,-0.039l-0.132,-0.039l-0.132,-0.041l-0.131,-0.041l-0.135,-0.044l-0.258,-0.085l-0.259,-0.09l-0.258,-0.092l-0.257,-0.096l-0.255,-0.099l-0.254,-0.102l-0.252,-0.105l-0.25,-0.108l-0.249,-0.111l-0.247,-0.113l-0.246,-0.117l-0.244,-0.119l-0.242,-0.123l-0.241,-0.125l-0.239,-0.128l-0.237,-0.13l-0.235,-0.134l-0.234,-0.136l-0.231,-0.139l-0.23,-0.142l-0.228,-0.144l-0.226,-0.147l-0.225,-0.15l-0.222,-0.152l-0.22,-0.155l-0.219,-0.157l-0.216,-0.16l-0.215,-0.162l-0.212,-0.165l-0.21,-0.167l-0.209,-0.17l-0.206,-0.173l-0.204,-0.174l-0.202,-0.177l-0.199,-0.18l-0.198,-0.181l-0.196,-0.185l-0.193,-0.186l-0.191,-0.189l-0.188,-0.191l-0.187,-0.193l-0.184,-0.195l-0.181,-0.198l-0.18,-0.2l-0.177,-0.201l-0.175,-0.205l-0.172,-0.206l-0.17,-0.208l-0.167,-0.21l-0.165,-0.213l-0.162,-0.214l-0.16,-0.216l-0.158,-0.219l-0.154,-0.22l-0.153,-0.223l-0.149,-0.224l-0.147,-0.226l-0.144,-0.228l-0.142,-0.23l-0.139,-0.232l-0.136,-0.233l-0.134,-0.235l-0.131,-0.238l-0.127,-0.238l-0.126,-0.241l-0.122,-0.242l-0.119,-0.244l-0.117,-0.246l-0.114,-0.247l-0.111,-0.249l-0.107,-0.251l-0.105,-0.252l-0.102,-0.253l-0.099,-0.255l-0.096,-0.257l-0.093,-0.258l-0.089,-0.26l-0.086,-0.257l-0.043,-0.135l-0.041,-0.131l-0.041,-0.132l-0.04,-0.132l-0.039,-0.132l-0.038,-0.133l-0.037,-0.133l-0.037,-0.134l-0.036,-0.133l-0.035,-0.134l-0.034,-0.135l-0.033,-0.134l-0.033,-0.135l-0.031,-0.136l-0.031,-0.136l-0.03,-0.135l-0.03,-0.137l-0.028,-0.136l-0.028,-0.137l-0.026,-0.137l-0.026,-0.138l-0.025,-0.137l-0.025,-0.138l-0.023,-0.139l-0.022,-0.138l-0.022,-0.139l-0.021,-0.139l-0.02,-0.139l-0.019,-0.14l-0.018,-0.14l-0.018,-0.14l-0.016,-0.141l-0.016,-0.14l-0.015,-0.141l-0.014,-0.141l-0.013,-0.142l-0.012,-0.141l-0.011,-0.142l-0.01,-0.142l-0.01,-0.143l-0.008,-0.142l-0.008,-0.143l-0.007,-0.143l-0.006,-0.143l-0.005,-0.143l-0.004,-0.144l-0.003,-0.144l-0.002,-0.144l-0.002,-0.144l0,-0.144l0,-0.145l0.002,-0.144l0.002,-0.144l0.003,-0.144l0.004,-0.143l0.005,-0.144l0.006,-0.143l0.007,-0.143l0.008,-0.142l0.008,-0.143l0.01,-0.142l0.01,-0.143l0.011,-0.141l0.012,-0.142l0.013,-0.141l0.014,-0.141l0.015,-0.141l0.016,-0.141l0.016,-0.14l0.018,-0.14l0.018,-0.14l0.019,-0.14l0.02,-0.139l0.021,-0.139l0.022,-0.139l0.022,-0.139l0.023,-0.138l0.025,-0.138l0.025,-0.138l0.026,-0.137l0.026,-0.137l0.028,-0.137l0.028,-0.137l0.03,-0.136l0.03,-0.136l0.031,-0.136l0.031,-0.135l0.033,-0.135l0.033,-0.135l0.034,-0.134l0.035,-0.134l0.036,-0.134l0.037,-0.133l0.037,-0.133l0.038,-0.133l0.039,-0.133l0.04,-0.132l0.041,-0.131l0.041,-0.132l0.043,-0.135l0.086,-0.257l0.089,-0.259l0.093,-0.258l0.096,-0.257l0.099,-0.255l0.102,-0.254l0.105,-0.252l0.107,-0.25l0.111,-0.249l0.114,-0.248l0.117,-0.245l0.119,-0.244l0.122,-0.243l0.126,-0.24l0.127,-0.239l0.131,-0.237l0.134,-0.235l0.136,-0.234l0.139,-0.232l0.142,-0.229l0.144,-0.228l0.147,-0.227l0.149,-0.224l0.153,-0.222l0.154,-0.221l0.158,-0.218l0.16,-0.216l0.162,-0.215l0.165,-0.212l0.167,-0.211l0.17,-0.208l0.172,-0.206l0.175,-0.204l0.177,-0.202l0.179,-0.2l0.182,-0.197l0.184,-0.196l0.187,-0.193l0.188,-0.191l0.191,-0.188l0.194,-0.187l0.195,-0.184l0.198,-0.182l0.199,-0.179l0.202,-0.177l0.204,-0.175l0.206,-0.172l0.209,-0.17l0.21,-0.167l0.212,-0.165l0.215,-0.163l0.216,-0.16l0.219,-0.157l0.22,-0.155l0.222,-0.152l0.225,-0.149l0.226,-0.147l0.228,-0.145l0.23,-0.141l0.231,-0.139l0.234,-0.137l0.235,-0.133l0.237,-0.131l0.239,-0.128l0.241,-0.125l0.242,-0.122l0.244,-0.12l0.246,-0.116l0.247,-0.114l0.249,-0.111l0.25,-0.108l0.252,-0.104l0.254,-0.102l0.255,-0.099l0.257,-0.096l0.258,-0.093l0.259,-0.09l0.257,-0.085l0.135,-0.043l0.132,-0.042l0.132,-0.04l0.132,-0.04l0.132,-0.039l0.133,-0.038l0.133,-0.037l0.133,-0.037l0.134,-0.036l0.134,-0.035l0.135,-0.034l0.134,-0.033l0.135,-0.033l0.136,-0.032l0.135,-0.03l0.136,-0.031l0.136,-0.029l0.137,-0.028l0.137,-0.028l0.137,-0.027l0.137,-0.025l0.138,-0.026l0.138,-0.024l0.138,-0.023l0.139,-0.023l0.139,-0.021l0.139,-0.021l0.139,-0.02l0.14,-0.019l0.14,-0.019l0.14,-0.017l0.14,-0.016l0.141,-0.016l0.141,-0.015l0.141,-0.014l0.141,-0.013l0.142,-0.012l0.142,-0.011l0.142,-0.011l0.142,-0.009l0.143,-0.009l0.142,-0.007l0.144,-0.007l0.143,-0.006l0.143,-0.005l0.144,-0.004l0.143,-0.003l0.144,-0.003l0.145,-0.001l0.144,0l0.144,0Zm-0.254,5.364l-0.11,0.001l-0.11,0.002l-0.11,0.003l-0.11,0.003l-0.109,0.004l-0.11,0.004l-0.109,0.005l-0.108,0.006l-0.109,0.007l-0.108,0.007l-0.109,0.008l-0.108,0.008l-0.108,0.01l-0.107,0.01l-0.107,0.01l-0.108,0.011l-0.107,0.012l-0.107,0.013l-0.106,0.013l-0.106,0.014l-0.106,0.014l-0.106,0.016l-0.106,0.016l-0.105,0.016l-0.106,0.017l-0.105,0.018l-0.105,0.018l-0.104,0.019l-0.104,0.02l-0.105,0.02l-0.104,0.021l-0.103,0.022l-0.103,0.022l-0.104,0.023l-0.103,0.023l-0.102,0.024l-0.103,0.025l-0.102,0.025l-0.102,0.026l-0.102,0.027l-0.101,0.027l-0.101,0.028l-0.101,0.028l-0.101,0.029l-0.1,0.03l-0.101,0.03l-0.1,0.031l-0.099,0.031l-0.096,0.031l-0.202,0.067l-0.197,0.068l-0.195,0.07l-0.195,0.073l-0.194,0.075l-0.192,0.077l-0.192,0.08l-0.19,0.082l-0.189,0.084l-0.188,0.086l-0.186,0.089l-0.185,0.09l-0.184,0.093l-0.183,0.095l-0.182,0.098l-0.18,0.099l-0.179,0.101l-0.178,0.104l-0.176,0.106l-0.175,0.107l-0.173,0.11l-0.172,0.112l-0.171,0.114l-0.169,0.116l-0.168,0.118l-0.166,0.119l-0.165,0.122l-0.163,0.124l-0.162,0.125l-0.16,0.128l-0.159,0.129l-0.157,0.131l-0.155,0.133l-0.154,0.135l-0.152,0.137l-0.151,0.139l-0.149,0.14l-0.147,0.142l-0.145,0.144l-0.144,0.145l-0.142,0.147l-0.14,0.149l-0.139,0.151l-0.136,0.152l-0.135,0.154l-0.133,0.155l-0.132,0.157l-0.129,0.159l-0.127,0.16l-0.126,0.162l-0.124,0.163l-0.121,0.165l-0.12,0.166l-0.118,0.168l-0.116,0.169l-0.114,0.171l-0.111,0.172l-0.11,0.173l-0.108,0.175l-0.106,0.176l-0.103,0.178l-0.102,0.179l-0.099,0.18l-0.097,0.181l-0.096,0.183l-0.092,0.184l-0.091,0.186l-0.089,0.186l-0.086,0.188l-0.084,0.189l-0.082,0.19l-0.08,0.191l-0.077,0.193l-0.075,0.194l-0.073,0.194l-0.07,0.196l-0.068,0.197l-0.067,0.202l-0.031,0.096l-0.031,0.099l-0.031,0.1l-0.03,0.1l-0.03,0.101l-0.029,0.101l-0.028,0.101l-0.028,0.101l-0.027,0.101l-0.027,0.102l-0.025,0.102l-0.026,0.102l-0.024,0.102l-0.025,0.103l-0.023,0.103l-0.023,0.103l-0.022,0.104l-0.022,0.103l-0.02,0.104l-0.021,0.104l-0.019,0.105l-0.02,0.104l-0.018,0.105l-0.018,0.105l-0.017,0.105l-0.016,0.106l-0.016,0.105l-0.015,0.106l-0.015,0.106l-0.014,0.107l-0.013,0.106l-0.012,0.107l-0.012,0.107l-0.012,0.107l-0.01,0.108l-0.01,0.107l-0.009,0.108l-0.009,0.108l-0.008,0.108l-0.007,0.109l-0.007,0.108l-0.005,0.109l-0.006,0.109l-0.004,0.11l-0.004,0.109l-0.003,0.109l-0.003,0.11l-0.001,0.11l-0.001,0.11l-0.001,0.111l0.001,0.11l0.001,0.11l0.001,0.11l0.003,0.11l0.003,0.11l0.004,0.109l0.004,0.109l0.006,0.109l0.005,0.109l0.007,0.109l0.007,0.108l0.008,0.108l0.009,0.109l0.009,0.107l0.01,0.108l0.01,0.107l0.012,0.107l0.012,0.107l0.012,0.107l0.013,0.107l0.014,0.106l0.015,0.106l0.015,0.106l0.016,0.106l0.016,0.105l0.017,0.105l0.018,0.105l0.018,0.105l0.02,0.105l0.019,0.104l0.021,0.104l0.02,0.104l0.022,0.104l0.022,0.103l0.023,0.104l0.023,0.102l0.025,0.103l0.024,0.103l0.026,0.102l0.025,0.102l0.027,0.101l0.027,0.102l0.028,0.101l0.028,0.101l0.029,0.101l0.03,0.1l0.03,0.1l0.031,0.1l0.031,0.1l0.031,0.095l0.067,0.202l0.068,0.197l0.07,0.196l0.073,0.195l0.075,0.194l0.077,0.192l0.08,0.191l0.082,0.191l0.084,0.189l0.086,0.187l0.089,0.187l0.091,0.185l0.092,0.184l0.096,0.183l0.097,0.182l0.099,0.18l0.102,0.179l0.103,0.177l0.106,0.176l0.108,0.175l0.11,0.174l0.111,0.172l0.114,0.171l0.116,0.169l0.118,0.167l0.12,0.167l0.121,0.165l0.124,0.163l0.126,0.162l0.127,0.16l0.129,0.158l0.132,0.157l0.133,0.156l0.135,0.154l0.136,0.152l0.139,0.15l0.14,0.149l0.142,0.147l0.144,0.146l0.145,0.144l0.147,0.142l0.149,0.14l0.151,0.138l0.152,0.137l0.154,0.135l0.155,0.133l0.157,0.131l0.159,0.13l0.16,0.127l0.162,0.126l0.163,0.123l0.165,0.122l0.166,0.12l0.168,0.118l0.169,0.116l0.171,0.113l0.172,0.112l0.173,0.11l0.175,0.108l0.176,0.105l0.178,0.104l0.179,0.102l0.18,0.099l0.182,0.097l0.182,0.095l0.185,0.093l0.185,0.091l0.186,0.088l0.188,0.087l0.189,0.084l0.19,0.082l0.192,0.079l0.192,0.078l0.194,0.075l0.195,0.072l0.195,0.071l0.197,0.068l0.202,0.067l0.096,0.031l0.099,0.031l0.1,0.031l0.1,0.03l0.101,0.03l0.101,0.029l0.101,0.028l0.101,0.028l0.101,0.027l0.102,0.026l0.102,0.026l0.102,0.026l0.103,0.024l0.102,0.024l0.103,0.024l0.103,0.023l0.104,0.022l0.104,0.021l0.103,0.021l0.104,0.021l0.105,0.019l0.104,0.019l0.105,0.019l0.105,0.017l0.105,0.018l0.106,0.016l0.106,0.016l0.106,0.015l0.106,0.015l0.106,0.013l0.107,0.014l0.106,0.012l0.107,0.012l0.108,0.011l0.107,0.011l0.107,0.01l0.108,0.009l0.108,0.009l0.109,0.008l0.108,0.007l0.109,0.006l0.108,0.006l0.11,0.005l0.109,0.005l0.109,0.004l0.11,0.003l0.109,0.002l0.11,0.002l0.111,0.001l0.11,0l0.11,0l0.111,-0.001l0.11,-0.002l0.109,-0.002l0.11,-0.003l0.109,-0.004l0.109,-0.005l0.11,-0.005l0.108,-0.006l0.109,-0.006l0.108,-0.007l0.109,-0.008l0.108,-0.009l0.108,-0.009l0.107,-0.01l0.107,-0.011l0.108,-0.011l0.107,-0.012l0.106,-0.012l0.107,-0.014l0.106,-0.013l0.106,-0.015l0.106,-0.015l0.106,-0.016l0.106,-0.016l0.105,-0.018l0.105,-0.017l0.105,-0.019l0.104,-0.019l0.105,-0.019l0.104,-0.021l0.103,-0.021l0.104,-0.021l0.104,-0.022l0.103,-0.023l0.103,-0.024l0.102,-0.024l0.103,-0.024l0.102,-0.026l0.102,-0.026l0.102,-0.026l0.101,-0.027l0.101,-0.028l0.101,-0.028l0.101,-0.029l0.1,-0.03l0.101,-0.03l0.1,-0.031l0.099,-0.031l0.096,-0.031l0.202,-0.067l0.197,-0.068l0.195,-0.071l0.195,-0.072l0.194,-0.075l0.192,-0.078l0.192,-0.079l0.19,-0.082l0.189,-0.084l0.188,-0.087l0.186,-0.088l0.185,-0.091l0.185,-0.093l0.182,-0.095l0.182,-0.097l0.18,-0.099l0.179,-0.102l0.178,-0.104l0.176,-0.105l0.175,-0.108l0.173,-0.11l0.172,-0.112l0.171,-0.113l0.169,-0.116l0.168,-0.118l0.166,-0.12l0.165,-0.122l0.163,-0.123l0.162,-0.126l0.16,-0.127l0.159,-0.13l0.157,-0.131l0.155,-0.133l0.154,-0.135l0.152,-0.136l0.151,-0.139l0.148,-0.14l0.148,-0.142l0.145,-0.144l0.144,-0.146l0.142,-0.147l0.14,-0.149l0.139,-0.15l0.136,-0.152l0.135,-0.154l0.133,-0.156l0.132,-0.157l0.129,-0.158l0.127,-0.161l0.126,-0.161l0.124,-0.163l0.121,-0.165l0.12,-0.167l0.118,-0.167l0.116,-0.169l0.114,-0.171l0.112,-0.172l0.109,-0.174l0.108,-0.174l0.106,-0.177l0.103,-0.177l0.102,-0.179l0.099,-0.18l0.097,-0.182l0.095,-0.183l0.093,-0.184l0.091,-0.185l0.089,-0.187l0.086,-0.187l0.084,-0.189l0.082,-0.191l0.08,-0.191l0.077,-0.192l0.075,-0.194l0.073,-0.195l0.07,-0.196l0.068,-0.197l0.067,-0.202l0.031,-0.095l0.031,-0.1l0.031,-0.1l0.03,-0.1l0.03,-0.1l0.029,-0.101l0.028,-0.101l0.028,-0.101l0.027,-0.102l0.027,-0.101l0.025,-0.102l0.026,-0.103l0.024,-0.102l0.025,-0.103l0.023,-0.103l0.023,-0.103l0.022,-0.103l0.022,-0.104l0.02,-0.104l0.021,-0.104l0.019,-0.104l0.02,-0.105l0.018,-0.105l0.018,-0.105l0.017,-0.105l0.016,-0.105l0.016,-0.106l0.015,-0.106l0.015,-0.106l0.014,-0.106l0.013,-0.107l0.012,-0.107l0.012,-0.107l0.012,-0.107l0.01,-0.107l0.01,-0.108l0.009,-0.108l0.009,-0.108l0.008,-0.108l0.007,-0.108l0.007,-0.109l0.005,-0.109l0.006,-0.109l0.004,-0.109l0.004,-0.109l0.003,-0.11l0.003,-0.11l0.001,-0.11l0.001,-0.11l0.001,-0.11l-0.001,-0.111l-0.001,-0.11l-0.001,-0.11l-0.003,-0.109l-0.003,-0.11l-0.004,-0.11l-0.004,-0.109l-0.006,-0.109l-0.005,-0.109l-0.007,-0.108l-0.007,-0.109l-0.008,-0.108l-0.009,-0.108l-0.009,-0.108l-0.01,-0.107l-0.01,-0.108l-0.012,-0.107l-0.012,-0.107l-0.012,-0.107l-0.013,-0.106l-0.014,-0.107l-0.015,-0.106l-0.015,-0.105l-0.016,-0.106l-0.016,-0.106l-0.017,-0.105l-0.018,-0.105l-0.018,-0.105l-0.02,-0.104l-0.019,-0.105l-0.021,-0.104l-0.02,-0.104l-0.022,-0.103l-0.022,-0.104l-0.023,-0.103l-0.023,-0.103l-0.025,-0.103l-0.024,-0.102l-0.026,-0.102l-0.025,-0.102l-0.027,-0.102l-0.027,-0.101l-0.028,-0.102l-0.028,-0.1l-0.029,-0.101l-0.03,-0.101l-0.03,-0.1l-0.031,-0.1l-0.031,-0.1l-0.031,-0.095l-0.067,-0.202l-0.068,-0.197l-0.07,-0.196l-0.073,-0.194l-0.075,-0.194l-0.077,-0.193l-0.08,-0.191l-0.082,-0.19l-0.084,-0.189l-0.086,-0.188l-0.089,-0.186l-0.091,-0.186l-0.093,-0.184l-0.095,-0.183l-0.097,-0.181l-0.099,-0.18l-0.102,-0.179l-0.103,-0.178l-0.106,-0.176l-0.108,-0.175l-0.11,-0.173l-0.111,-0.172l-0.114,-0.171l-0.116,-0.169l-0.118,-0.168l-0.12,-0.166l-0.121,-0.165l-0.124,-0.163l-0.126,-0.162l-0.127,-0.16l-0.129,-0.159l-0.132,-0.157l-0.133,-0.155l-0.135,-0.154l-0.136,-0.152l-0.139,-0.151l-0.14,-0.149l-0.142,-0.147l-0.144,-0.145l-0.145,-0.144l-0.147,-0.142l-0.149,-0.141l-0.151,-0.138l-0.152,-0.137l-0.154,-0.135l-0.155,-0.133l-0.157,-0.131l-0.159,-0.129l-0.16,-0.128l-0.162,-0.125l-0.163,-0.124l-0.165,-0.122l-0.166,-0.119l-0.168,-0.118l-0.169,-0.116l-0.171,-0.114l-0.172,-0.112l-0.173,-0.11l-0.175,-0.107l-0.176,-0.106l-0.178,-0.104l-0.179,-0.101l-0.18,-0.099l-0.182,-0.098l-0.183,-0.095l-0.184,-0.093l-0.185,-0.09l-0.186,-0.089l-0.188,-0.086l-0.189,-0.084l-0.19,-0.082l-0.192,-0.08l-0.192,-0.077l-0.194,-0.075l-0.195,-0.073l-0.195,-0.07l-0.197,-0.068l-0.202,-0.067l-0.096,-0.031l-0.099,-0.031l-0.1,-0.031l-0.101,-0.03l-0.1,-0.03l-0.101,-0.029l-0.101,-0.028l-0.101,-0.028l-0.101,-0.027l-0.102,-0.027l-0.102,-0.026l-0.102,-0.025l-0.103,-0.025l-0.102,-0.024l-0.103,-0.023l-0.104,-0.023l-0.103,-0.022l-0.104,-0.022l-0.103,-0.021l-0.105,-0.02l-0.104,-0.02l-0.104,-0.019l-0.105,-0.018l-0.105,-0.018l-0.105,-0.017l-0.106,-0.016l-0.106,-0.016l-0.106,-0.016l-0.106,-0.014l-0.106,-0.014l-0.107,-0.013l-0.106,-0.013l-0.107,-0.012l-0.108,-0.011l-0.107,-0.01l-0.107,-0.01l-0.108,-0.01l-0.108,-0.008l-0.109,-0.008l-0.108,-0.007l-0.109,-0.007l-0.108,-0.006l-0.109,-0.005l-0.11,-0.004l-0.109,-0.004l-0.11,-0.003l-0.11,-0.003l-0.11,-0.002l-0.11,-0.001l-0.11,0l-0.11,0Z" style="fill:#4b4b4b;"/></g></svg>