<?xml version="1.0" encoding="UTF-8" standalone="no"?>
<!DOCTYPE svg PUBLIC "-//W3C//DTD SVG 1.1//EN" "http://www.w3.org/Graphics/SVG/1.1/DTD/svg11.dtd">
<svg width="100%" height="100%" viewBox="0 0 91 58" version="1.1" xmlns="http://www.w3.org/2000/svg" xmlns:xlink="http://www.w3.org/1999/xlink" xml:space="preserve" style="fill-rule:evenodd;clip-rule:evenodd;stroke-linecap:round;stroke-linejoin:round;stroke-miterlimit:1.5;">
    <g transform="matrix(1,0,0,1,-932.441,-153.275)">
        <g transform="matrix(0.829447,0,0,0.829447,138.38,36.0948)">
            <g id="GRAPHIC">
                <rect x="957.337" y="141.275" width="108.507" height="69.694" style="fill:rgb(229,229,229);"/>
                <g>
                    <g id="TEXT" transform="matrix(1,0,0,1,4,0)">
                        <g transform="matrix(1.30647,0,0,1,-296.032,5)">
                            <path d="M965.942,151.314L988.544,151.314" style="fill:white;stroke:rgb(118,118,118);stroke-width:3.01px;"/>
                        </g>
                        <g transform="matrix(1.14268,0,0,1,-137.818,15.8398)">
                            <path d="M965.942,151.314L988.544,151.314" style="fill:white;stroke:rgb(118,118,118);stroke-width:1.4px;"/>
                        </g>
                        <g transform="matrix(1.4037,0,0,1,-389.949,22.6796)">
                            <path d="M965.942,151.314L988.544,151.314" style="fill:white;stroke:rgb(118,118,118);stroke-width:1.23px;"/>
                        </g>
                        <g transform="matrix(1.4037,0,0,1,-389.949,42.9484)">
                            <path d="M965.942,151.314L988.544,151.314" style="fill:white;stroke:rgb(118,118,118);stroke-width:1.23px;"/>
                        </g>
                        <g transform="matrix(1.14268,0,0,1,-137.818,29.5194)">
                            <path d="M965.942,151.314L988.544,151.314" style="fill:white;stroke:rgb(118,118,118);stroke-width:1.4px;"/>
                        </g>
                        <g transform="matrix(0.571339,0,0,1,414.062,36.0966)">
                            <path d="M965.942,151.314L988.544,151.314" style="fill:white;stroke:rgb(118,118,118);stroke-width:1.84px;"/>
                        </g>
                        <g transform="matrix(0.419446,0,0,1,583.214,36.0966)">
                            <path d="M965.942,151.314L988.544,151.314" style="fill:white;stroke:rgb(118,118,118);stroke-width:2.36px;"/>
                        </g>
                    </g>
                    <g id="IMG" transform="matrix(1,0,0,1,4,0)">
                        <g transform="matrix(1,0,0,1,-8.89356,0.369845)">
                            <rect x="1020.48" y="151.314" width="34.728" height="48.299" style="fill:rgb(0,205,255);stroke:rgb(127,127,127);stroke-width:2px;"/>
                        </g>
                        <circle id="SUN" cx="1039.38" cy="159.248" r="4.873" style="fill:rgb(227,225,33);"/>
                        <g id="CLOUD" transform="matrix(1,0,0,0.735591,-3.12134,43.9691)">
                            <path d="M1024.16,164.058C1024.43,162.992 1025.86,162.154 1027.56,162.154C1029.25,162.154 1030.68,162.992 1030.95,164.058C1032.31,163.543 1034.13,163.802 1035.19,164.729C1036.25,165.656 1036.2,166.961 1035.18,167.775C1036.6,168.198 1037.45,169.359 1037.08,170.515C1036.7,171.672 1035.21,172.46 1033.67,172.408C1034.09,173.452 1033.32,174.641 1031.79,175.156C1030.27,175.67 1028.46,175.349 1027.56,174.471C1026.65,175.349 1024.85,175.67 1023.32,175.156C1021.79,174.641 1021.03,173.452 1021.44,172.408C1019.9,172.46 1018.41,171.672 1018.04,170.515C1017.66,169.359 1018.51,168.198 1019.93,167.775C1018.91,166.961 1018.87,165.656 1019.92,164.729C1020.98,163.802 1022.8,163.543 1024.16,164.058Z" style="fill:rgb(173,255,243);"/>
                        </g>
                        <g id="MOUNTAINS">
                            <g transform="matrix(1,0,0,1,-5,0)">
                                <path d="M1024.68,185.38L1028.95,199.983L1020.4,199.983L1024.68,185.38Z" style="fill:rgb(124,124,124);"/>
                            </g>
                            <g transform="matrix(1.58431,0,0,0.699198,-597.452,60.1552)">
                                <path d="M1024.68,185.38L1028.95,199.983L1020.4,199.983L1024.68,185.38Z" style="fill:rgb(124,124,124);"/>
                            </g>
                            <g transform="matrix(1.96643,0,0,1.2717,-981.587,-54.3349)">
                                <path d="M1024.68,185.38L1028.95,199.983L1020.4,199.983L1024.68,185.38Z" style="fill:rgb(124,124,124);"/>
                            </g>
                            <g transform="matrix(1,0,0,1,-0.0386958,0.882397)">
                                <path d="M1025.98,190.235L1027.01,191.726C1027.16,192.024 1026.47,192.765 1025.95,192.205C1025.86,192.098 1025.7,192.313 1025.43,192.257C1025.06,192.181 1024.95,191.726 1024.95,191.726L1025.98,190.235Z" style="fill:white;"/>
                            </g>
                            <g transform="matrix(1,0,0,1.0401,0,-5.55261)">
                                <path d="M1033.37,181.294L1034.04,182.723C1034.04,182.723 1034.04,182.723 1034.04,182.724C1033.92,182.978 1033.66,183.142 1033.37,183.142C1033.08,183.142 1032.81,182.978 1032.69,182.724C1032.69,182.723 1032.69,182.723 1032.69,182.723L1033.37,181.294Z" style="fill:white;"/>
                            </g>
                        </g>
                    </g>
                </g>
            </g>
        </g>
    </g>
</svg>
