<?xml version="1.0" encoding="UTF-8" standalone="no"?><!DOCTYPE svg PUBLIC "-//W3C//DTD SVG 1.1//EN" "http://www.w3.org/Graphics/SVG/1.1/DTD/svg11.dtd"><svg width="100%" height="100%" viewBox="0 0 96 100" version="1.1" xmlns="http://www.w3.org/2000/svg" xmlns:xlink="http://www.w3.org/1999/xlink" xml:space="preserve" xmlns:serif="http://www.serif.com/" style="fill-rule:evenodd;clip-rule:evenodd;stroke-linecap:round;stroke-linejoin:round;stroke-miterlimit:1.5;"><g id="TRASH-highlight" serif:id="TRASH highlight"><path id="TRASH-highlight1" serif:id="TRASH highlight" d="M87.745,21.974c0,-10.795 -8.763,-11.33 -19.557,-11.33l-39.116,0c-10.794,0 -19.558,0.535 -19.558,11.33l8.229,55.442c0,10.794 8.763,19.558 19.558,19.558l22.658,0c10.794,0 19.558,-8.764 19.558,-19.558l8.228,-55.442Z" style="fill:#e4423a;fill-opacity:0;"/><path d="M68.696,8.395l0.507,0.001l0.504,0.003l0.502,0.004l0.499,0.006l0.497,0.008l0.494,0.01l0.491,0.012l0.487,0.015l0.245,0.009l0.242,0.01l0.242,0.01l0.24,0.011l0.24,0.012l0.239,0.012l0.239,0.014l0.237,0.015l0.236,0.015l0.236,0.017l0.235,0.018l0.234,0.019l0.233,0.019l0.232,0.021l0.231,0.023l0.23,0.023l0.23,0.025l0.228,0.026l0.227,0.027l0.227,0.029l0.225,0.03l0.224,0.032l0.224,0.033l0.222,0.035l0.221,0.036l0.221,0.038l0.219,0.04l0.218,0.041l0.217,0.043l0.216,0.045l0.215,0.047l0.214,0.048l0.212,0.051l0.212,0.052l0.21,0.055l0.21,0.057l0.208,0.059l0.207,0.061l0.205,0.063l0.205,0.066l0.203,0.068l0.202,0.07l0.2,0.073l0.199,0.075l0.198,0.078l0.197,0.081l0.195,0.083l0.194,0.086l0.192,0.089l0.19,0.092l0.189,0.095l0.188,0.098l0.185,0.101l0.184,0.104l0.178,0.104l0.095,0.058l0.09,0.055l0.089,0.057l0.089,0.057l0.088,0.058l0.088,0.059l0.088,0.059l0.086,0.061l0.087,0.062l0.086,0.062l0.085,0.063l0.085,0.064l0.084,0.065l0.083,0.065l0.083,0.067l0.083,0.067l0.082,0.069l0.081,0.069l0.08,0.07l0.08,0.071l0.08,0.072l0.078,0.072l0.078,0.074l0.077,0.075l0.077,0.075l0.076,0.076l0.075,0.077l0.074,0.078l0.074,0.079l0.072,0.08l0.073,0.081l0.071,0.081l0.071,0.083l0.07,0.083l0.069,0.084l0.068,0.085l0.067,0.086l0.067,0.087l0.066,0.087l0.064,0.089l0.064,0.089l0.064,0.09l0.062,0.091l0.062,0.092l0.06,0.093l0.06,0.093l0.059,0.094l0.058,0.096l0.057,0.095l0.056,0.097l0.055,0.098l0.054,0.098l0.054,0.099l0.052,0.1l0.052,0.1l0.05,0.102l0.05,0.102l0.049,0.103l0.047,0.104l0.047,0.104l0.046,0.105l0.045,0.106l0.044,0.107l0.043,0.107l0.042,0.108l0.042,0.109l0.04,0.11l0.039,0.11l0.038,0.111l0.038,0.112l0.036,0.113l0.035,0.113l0.035,0.113l0.033,0.115l0.033,0.115l0.032,0.116l0.03,0.117l0.03,0.117l0.029,0.118l0.028,0.119l0.027,0.12l0.026,0.12l0.025,0.12l0.024,0.122l0.023,0.122l0.023,0.123l0.021,0.124l0.02,0.124l0.02,0.125l0.018,0.126l0.018,0.126l0.017,0.128l0.016,0.128l0.014,0.128l0.014,0.13l0.013,0.13l0.013,0.13l0.011,0.132l0.01,0.132l0.01,0.133l0.008,0.133l0.008,0.135l0.006,0.135l0.006,0.136l0.005,0.136l0.004,0.138l0.003,0.138l0.003,0.139l0.001,0.139l0,0.133l-0.005,0.17l-0.019,0.168l-8.205,55.282l0,-0.029l-0.001,0.14l-0.002,0.14l-0.003,0.141l-0.004,0.139l-0.005,0.14l-0.006,0.14l-0.007,0.139l-0.007,0.139l-0.009,0.139l-0.009,0.138l-0.01,0.139l-0.011,0.138l-0.012,0.138l-0.012,0.138l-0.014,0.137l-0.014,0.137l-0.016,0.137l-0.016,0.137l-0.017,0.136l-0.017,0.137l-0.019,0.136l-0.019,0.135l-0.021,0.136l-0.021,0.135l-0.022,0.135l-0.023,0.135l-0.023,0.134l-0.025,0.134l-0.025,0.134l-0.026,0.134l-0.027,0.133l-0.027,0.133l-0.029,0.133l-0.029,0.132l-0.03,0.132l-0.031,0.132l-0.032,0.131l-0.032,0.132l-0.034,0.13l-0.034,0.131l-0.034,0.13l-0.036,0.13l-0.038,0.133l-0.074,0.255l-0.078,0.257l-0.081,0.255l-0.085,0.255l-0.087,0.252l-0.09,0.252l-0.094,0.25l-0.096,0.248l-0.099,0.247l-0.102,0.246l-0.105,0.244l-0.108,0.242l-0.111,0.241l-0.113,0.239l-0.117,0.238l-0.119,0.236l-0.122,0.234l-0.124,0.233l-0.128,0.231l-0.13,0.229l-0.132,0.227l-0.136,0.226l-0.138,0.224l-0.14,0.222l-0.143,0.22l-0.146,0.219l-0.148,0.216l-0.151,0.215l-0.153,0.213l-0.156,0.21l-0.158,0.209l-0.161,0.207l-0.163,0.205l-0.165,0.203l-0.168,0.201l-0.17,0.198l-0.173,0.197l-0.175,0.195l-0.177,0.192l-0.179,0.191l-0.182,0.188l-0.183,0.186l-0.186,0.184l-0.189,0.181l-0.19,0.179l-0.192,0.177l-0.195,0.175l-0.197,0.173l-0.198,0.17l-0.201,0.168l-0.203,0.165l-0.205,0.163l-0.207,0.161l-0.209,0.158l-0.211,0.156l-0.212,0.153l-0.215,0.151l-0.216,0.148l-0.219,0.146l-0.22,0.143l-0.222,0.14l-0.224,0.138l-0.226,0.136l-0.227,0.132l-0.23,0.13l-0.231,0.128l-0.232,0.124l-0.234,0.122l-0.236,0.119l-0.238,0.117l-0.239,0.113l-0.241,0.111l-0.242,0.108l-0.244,0.105l-0.246,0.102l-0.247,0.099l-0.248,0.097l-0.25,0.093l-0.252,0.09l-0.252,0.088l-0.255,0.084l-0.255,0.081l-0.257,0.078l-0.255,0.075l-0.133,0.037l-0.13,0.036l-0.13,0.034l-0.131,0.035l-0.131,0.033l-0.131,0.032l-0.131,0.032l-0.132,0.031l-0.132,0.03l-0.132,0.029l-0.133,0.029l-0.133,0.027l-0.133,0.027l-0.134,0.026l-0.134,0.026l-0.134,0.024l-0.134,0.024l-0.135,0.022l-0.135,0.022l-0.135,0.021l-0.136,0.021l-0.135,0.019l-0.136,0.019l-0.137,0.018l-0.136,0.016l-0.137,0.017l-0.137,0.015l-0.137,0.014l-0.138,0.014l-0.137,0.012l-0.138,0.012l-0.138,0.011l-0.139,0.01l-0.138,0.01l-0.139,0.008l-0.139,0.007l-0.14,0.007l-0.139,0.006l-0.14,0.005l-0.14,0.004l-0.14,0.003l-0.14,0.002l-0.141,0.001l-0.137,0.001l-22.665,0l-0.137,-0.001l-0.14,-0.001l-0.141,-0.002l-0.14,-0.003l-0.14,-0.004l-0.139,-0.005l-0.14,-0.006l-0.139,-0.007l-0.139,-0.007l-0.139,-0.008l-0.139,-0.01l-0.138,-0.01l-0.138,-0.011l-0.138,-0.012l-0.138,-0.012l-0.137,-0.014l-0.138,-0.014l-0.137,-0.015l-0.136,-0.017l-0.137,-0.016l-0.136,-0.018l-0.136,-0.019l-0.136,-0.019l-0.135,-0.021l-0.136,-0.021l-0.135,-0.022l-0.134,-0.022l-0.135,-0.024l-0.134,-0.024l-0.134,-0.026l-0.133,-0.026l-0.133,-0.027l-0.133,-0.027l-0.133,-0.029l-0.133,-0.029l-0.132,-0.03l-0.131,-0.031l-0.132,-0.032l-0.131,-0.032l-0.131,-0.033l-0.131,-0.035l-0.13,-0.034l-0.13,-0.036l-0.133,-0.037l-0.255,-0.075l-0.256,-0.078l-0.256,-0.081l-0.254,-0.084l-0.253,-0.088l-0.251,-0.09l-0.25,-0.093l-0.249,-0.097l-0.247,-0.099l-0.245,-0.102l-0.244,-0.105l-0.243,-0.108l-0.24,-0.111l-0.24,-0.113l-0.237,-0.117l-0.236,-0.119l-0.234,-0.122l-0.233,-0.124l-0.231,-0.128l-0.229,-0.13l-0.228,-0.132l-0.225,-0.136l-0.224,-0.138l-0.222,-0.14l-0.221,-0.143l-0.218,-0.146l-0.217,-0.148l-0.214,-0.151l-0.213,-0.153l-0.211,-0.156l-0.209,-0.158l-0.207,-0.161l-0.204,-0.163l-0.203,-0.165l-0.201,-0.168l-0.199,-0.17l-0.197,-0.173l-0.194,-0.175l-0.193,-0.177l-0.19,-0.179l-0.188,-0.181l-0.186,-0.184l-0.184,-0.186l-0.182,-0.188l-0.179,-0.191l-0.177,-0.192l-0.175,-0.195l-0.172,-0.197l-0.17,-0.198l-0.168,-0.201l-0.166,-0.203l-0.163,-0.205l-0.16,-0.207l-0.158,-0.209l-0.156,-0.21l-0.153,-0.213l-0.151,-0.215l-0.148,-0.216l-0.146,-0.219l-0.143,-0.22l-0.141,-0.222l-0.138,-0.224l-0.135,-0.226l-0.133,-0.227l-0.13,-0.229l-0.127,-0.231l-0.125,-0.233l-0.122,-0.234l-0.119,-0.236l-0.116,-0.238l-0.114,-0.239l-0.11,-0.241l-0.108,-0.242l-0.105,-0.244l-0.103,-0.246l-0.099,-0.247l-0.096,-0.248l-0.093,-0.25l-0.091,-0.252l-0.087,-0.252l-0.084,-0.255l-0.082,-0.255l-0.078,-0.257l-0.074,-0.255l-0.037,-0.133l-0.036,-0.13l-0.035,-0.13l-0.034,-0.131l-0.033,-0.13l-0.033,-0.132l-0.031,-0.131l-0.031,-0.132l-0.03,-0.132l-0.03,-0.132l-0.028,-0.133l-0.028,-0.133l-0.027,-0.133l-0.026,-0.134l-0.025,-0.134l-0.024,-0.134l-0.024,-0.134l-0.023,-0.135l-0.022,-0.135l-0.021,-0.135l-0.02,-0.136l-0.02,-0.135l-0.018,-0.136l-0.018,-0.136l-0.017,-0.137l-0.016,-0.137l-0.015,-0.137l-0.015,-0.137l-0.013,-0.137l-0.013,-0.138l-0.012,-0.138l-0.011,-0.138l-0.01,-0.139l-0.009,-0.138l-0.008,-0.139l-0.008,-0.139l-0.007,-0.139l-0.005,-0.14l-0.005,-0.14l-0.004,-0.14l-0.003,-0.14l-0.002,-0.14l-0.002,-0.14l0,0.028l-8.205,-55.281l-0.018,-0.168l-0.006,-0.17l0,-0.133l0.002,-0.139l0.002,-0.139l0.003,-0.138l0.004,-0.138l0.005,-0.136l0.006,-0.136l0.007,-0.135l0.007,-0.135l0.009,-0.133l0.009,-0.133l0.011,-0.132l0.011,-0.132l0.012,-0.131l0.013,-0.129l0.014,-0.13l0.015,-0.128l0.016,-0.128l0.016,-0.127l0.018,-0.127l0.019,-0.126l0.019,-0.125l0.021,-0.124l0.021,-0.124l0.022,-0.123l0.023,-0.122l0.024,-0.121l0.026,-0.121l0.026,-0.121l0.026,-0.119l0.028,-0.119l0.029,-0.118l0.03,-0.117l0.031,-0.117l0.031,-0.116l0.033,-0.115l0.033,-0.115l0.035,-0.113l0.035,-0.113l0.037,-0.113l0.037,-0.112l0.038,-0.111l0.04,-0.11l0.04,-0.11l0.041,-0.108l0.042,-0.109l0.043,-0.107l0.044,-0.107l0.045,-0.106l0.046,-0.105l0.047,-0.104l0.048,-0.104l0.048,-0.103l0.05,-0.102l0.051,-0.101l0.051,-0.101l0.053,-0.1l0.053,-0.099l0.054,-0.098l0.056,-0.098l0.056,-0.097l0.057,-0.095l0.058,-0.095l0.059,-0.095l0.059,-0.093l0.061,-0.093l0.061,-0.092l0.063,-0.091l0.063,-0.09l0.064,-0.089l0.065,-0.089l0.066,-0.087l0.066,-0.087l0.068,-0.086l0.068,-0.085l0.069,-0.084l0.07,-0.083l0.07,-0.083l0.072,-0.081l0.072,-0.081l0.073,-0.08l0.073,-0.079l0.075,-0.078l0.075,-0.077l0.076,-0.076l0.076,-0.075l0.078,-0.075l0.077,-0.074l0.079,-0.072l0.079,-0.072l0.08,-0.071l0.081,-0.07l0.081,-0.069l0.082,-0.069l0.082,-0.067l0.083,-0.067l0.083,-0.065l0.085,-0.065l0.084,-0.064l0.086,-0.063l0.085,-0.062l0.087,-0.062l0.087,-0.061l0.087,-0.059l0.088,-0.059l0.089,-0.058l0.088,-0.057l0.09,-0.057l0.09,-0.055l0.094,-0.058l0.178,-0.104l0.184,-0.104l0.186,-0.101l0.187,-0.098l0.189,-0.095l0.191,-0.092l0.192,-0.089l0.194,-0.086l0.195,-0.083l0.196,-0.081l0.198,-0.078l0.199,-0.075l0.201,-0.073l0.202,-0.07l0.203,-0.068l0.204,-0.066l0.206,-0.063l0.207,-0.061l0.208,-0.059l0.209,-0.057l0.21,-0.055l0.212,-0.052l0.213,-0.051l0.213,-0.048l0.215,-0.047l0.216,-0.045l0.217,-0.043l0.219,-0.041l0.219,-0.04l0.22,-0.038l0.221,-0.036l0.223,-0.035l0.223,-0.033l0.225,-0.032l0.225,-0.03l0.226,-0.029l0.228,-0.027l0.228,-0.026l0.229,-0.025l0.23,-0.023l0.232,-0.023l0.232,-0.021l0.233,-0.019l0.234,-0.019l0.234,-0.018l0.236,-0.017l0.237,-0.015l0.237,-0.015l0.238,-0.014l0.239,-0.012l0.24,-0.012l0.241,-0.011l0.241,-0.01l0.243,-0.01l0.244,-0.009l0.487,-0.015l0.491,-0.012l0.495,-0.01l0.496,-0.008l0.5,-0.006l0.502,-0.004l0.504,-0.003l0.506,-0.001l0.508,-0.001l39.118,0l0.507,0.001Zm-39.623,4.499l-0.501,0.001l-0.497,0.001l-0.492,0.003l-0.487,0.004l-0.483,0.006l-0.477,0.007l-0.473,0.01l-0.467,0.012l-0.464,0.014l-0.227,0.008l-0.227,0.009l-0.226,0.009l-0.225,0.011l-0.223,0.011l-0.221,0.012l-0.22,0.012l-0.218,0.014l-0.216,0.014l-0.215,0.015l-0.213,0.016l-0.212,0.017l-0.209,0.018l-0.208,0.019l-0.206,0.02l-0.205,0.021l-0.202,0.022l-0.201,0.022l-0.199,0.024l-0.196,0.025l-0.195,0.027l-0.193,0.027l-0.191,0.028l-0.188,0.03l-0.187,0.03l-0.185,0.032l-0.182,0.033l-0.18,0.034l-0.178,0.035l-0.176,0.037l-0.174,0.038l-0.171,0.039l-0.169,0.04l-0.167,0.041l-0.164,0.043l-0.162,0.044l-0.16,0.045l-0.157,0.046l-0.155,0.048l-0.153,0.049l-0.149,0.05l-0.148,0.051l-0.145,0.053l-0.142,0.054l-0.14,0.055l-0.138,0.056l-0.134,0.058l-0.133,0.059l-0.129,0.06l-0.128,0.061l-0.124,0.063l-0.123,0.064l-0.119,0.065l-0.118,0.066l-0.119,0.07l-0.052,0.032l-0.056,0.034l-0.055,0.035l-0.055,0.035l-0.054,0.036l-0.053,0.036l-0.053,0.036l-0.052,0.036l-0.052,0.037l-0.051,0.037l-0.051,0.037l-0.049,0.038l-0.05,0.038l-0.049,0.038l-0.048,0.039l-0.048,0.039l-0.047,0.04l-0.047,0.04l-0.046,0.04l-0.045,0.04l-0.045,0.041l-0.045,0.041l-0.044,0.042l-0.044,0.042l-0.043,0.042l-0.042,0.043l-0.042,0.043l-0.042,0.044l-0.041,0.044l-0.041,0.045l-0.04,0.045l-0.04,0.045l-0.039,0.046l-0.039,0.046l-0.038,0.047l-0.038,0.048l-0.038,0.047l-0.037,0.048l-0.037,0.049l-0.036,0.05l-0.036,0.05l-0.035,0.05l-0.035,0.051l-0.035,0.052l-0.034,0.052l-0.034,0.053l-0.033,0.053l-0.033,0.055l-0.032,0.054l-0.033,0.056l-0.031,0.056l-0.032,0.056l-0.031,0.058l-0.03,0.058l-0.03,0.059l-0.03,0.059l-0.029,0.06l-0.029,0.061l-0.029,0.062l-0.028,0.063l-0.027,0.063l-0.027,0.064l-0.027,0.065l-0.027,0.066l-0.025,0.066l-0.026,0.068l-0.025,0.068l-0.025,0.069l-0.024,0.07l-0.023,0.071l-0.024,0.072l-0.022,0.073l-0.023,0.073l-0.022,0.075l-0.021,0.075l-0.021,0.077l-0.02,0.077l-0.02,0.078l-0.019,0.079l-0.019,0.08l-0.018,0.082l-0.018,0.082l-0.017,0.083l-0.017,0.084l-0.016,0.085l-0.016,0.086l-0.015,0.087l-0.014,0.088l-0.014,0.09l-0.014,0.09l-0.012,0.091l-0.012,0.092l-0.012,0.094l-0.011,0.094l-0.01,0.095l-0.01,0.097l-0.009,0.097l-0.008,0.099l-0.008,0.1l-0.007,0.1l-0.007,0.102l-0.006,0.103l-0.005,0.104l-0.004,0.105l-0.004,0.106l-0.003,0.108l-0.003,0.108l-0.002,0.109l0,0.062l8.203,55.273l0.018,0.161l0.007,0.162l0,0.119l0.001,0.112l0.002,0.112l0.002,0.111l0.004,0.112l0.003,0.111l0.005,0.111l0.005,0.111l0.006,0.11l0.007,0.111l0.007,0.11l0.008,0.11l0.009,0.11l0.009,0.109l0.011,0.11l0.01,0.109l0.012,0.109l0.012,0.109l0.013,0.108l0.013,0.108l0.014,0.108l0.015,0.108l0.015,0.108l0.016,0.107l0.017,0.108l0.018,0.107l0.018,0.107l0.018,0.106l0.02,0.106l0.02,0.106l0.02,0.106l0.022,0.106l0.022,0.105l0.022,0.105l0.023,0.105l0.024,0.105l0.025,0.104l0.025,0.105l0.025,0.104l0.027,0.103l0.027,0.104l0.027,0.103l0.029,0.103l0.028,0.099l0.06,0.208l0.062,0.203l0.064,0.203l0.067,0.201l0.069,0.2l0.072,0.199l0.074,0.198l0.076,0.197l0.079,0.196l0.081,0.195l0.083,0.193l0.086,0.192l0.087,0.191l0.09,0.19l0.093,0.188l0.094,0.187l0.097,0.186l0.099,0.185l0.101,0.183l0.103,0.182l0.105,0.18l0.108,0.179l0.109,0.178l0.112,0.176l0.113,0.175l0.116,0.174l0.118,0.172l0.12,0.17l0.121,0.169l0.124,0.168l0.126,0.166l0.127,0.164l0.13,0.163l0.131,0.161l0.134,0.16l0.135,0.158l0.137,0.156l0.139,0.155l0.141,0.153l0.142,0.151l0.145,0.15l0.146,0.148l0.148,0.146l0.149,0.144l0.152,0.143l0.153,0.14l0.154,0.139l0.157,0.138l0.158,0.135l0.159,0.133l0.162,0.132l0.162,0.129l0.165,0.128l0.166,0.126l0.167,0.123l0.169,0.122l0.171,0.12l0.172,0.117l0.173,0.116l0.175,0.114l0.176,0.111l0.178,0.11l0.179,0.107l0.181,0.106l0.182,0.103l0.183,0.101l0.184,0.099l0.186,0.096l0.187,0.095l0.189,0.092l0.189,0.09l0.191,0.088l0.193,0.086l0.193,0.083l0.194,0.081l0.196,0.078l0.197,0.077l0.198,0.074l0.199,0.071l0.2,0.069l0.202,0.067l0.202,0.065l0.204,0.062l0.208,0.06l0.099,0.028l0.103,0.028l0.103,0.028l0.103,0.027l0.104,0.026l0.104,0.026l0.104,0.025l0.105,0.024l0.104,0.024l0.105,0.023l0.105,0.023l0.106,0.022l0.105,0.021l0.106,0.021l0.106,0.02l0.107,0.019l0.106,0.019l0.107,0.018l0.107,0.017l0.107,0.017l0.107,0.016l0.108,0.016l0.108,0.014l0.108,0.015l0.108,0.013l0.109,0.013l0.109,0.012l0.109,0.011l0.109,0.011l0.109,0.01l0.11,0.009l0.11,0.009l0.11,0.008l0.11,0.008l0.11,0.006l0.111,0.006l0.111,0.005l0.111,0.005l0.111,0.004l0.111,0.003l0.112,0.003l0.111,0.001l0.112,0.001l0.116,0.001l22.651,0l0.116,-0.001l0.112,-0.001l0.112,-0.001l0.111,-0.003l0.112,-0.003l0.111,-0.004l0.111,-0.005l0.11,-0.005l0.111,-0.006l0.111,-0.006l0.11,-0.008l0.11,-0.008l0.11,-0.009l0.109,-0.009l0.11,-0.01l0.109,-0.011l0.109,-0.011l0.109,-0.012l0.108,-0.013l0.108,-0.013l0.108,-0.015l0.108,-0.014l0.108,-0.016l0.107,-0.016l0.108,-0.017l0.107,-0.017l0.106,-0.018l0.107,-0.019l0.106,-0.019l0.106,-0.02l0.106,-0.021l0.106,-0.021l0.105,-0.022l0.105,-0.023l0.105,-0.023l0.105,-0.024l0.104,-0.024l0.104,-0.025l0.104,-0.026l0.104,-0.026l0.103,-0.027l0.104,-0.028l0.103,-0.028l0.099,-0.028l0.208,-0.06l0.203,-0.062l0.203,-0.065l0.201,-0.067l0.2,-0.069l0.199,-0.071l0.198,-0.074l0.197,-0.077l0.196,-0.078l0.195,-0.081l0.193,-0.083l0.192,-0.086l0.191,-0.088l0.19,-0.09l0.188,-0.092l0.187,-0.095l0.186,-0.096l0.185,-0.099l0.183,-0.101l0.182,-0.103l0.18,-0.106l0.179,-0.107l0.178,-0.11l0.176,-0.111l0.175,-0.114l0.174,-0.116l0.172,-0.117l0.17,-0.12l0.169,-0.122l0.168,-0.123l0.166,-0.126l0.164,-0.128l0.163,-0.129l0.161,-0.132l0.16,-0.133l0.158,-0.135l0.156,-0.138l0.155,-0.139l0.153,-0.14l0.151,-0.143l0.15,-0.144l0.148,-0.146l0.146,-0.148l0.144,-0.15l0.143,-0.151l0.14,-0.153l0.139,-0.155l0.137,-0.156l0.136,-0.158l0.133,-0.16l0.131,-0.161l0.13,-0.163l0.128,-0.164l0.125,-0.166l0.124,-0.168l0.122,-0.169l0.12,-0.17l0.117,-0.172l0.116,-0.174l0.114,-0.175l0.111,-0.176l0.11,-0.178l0.107,-0.179l0.106,-0.18l0.103,-0.182l0.101,-0.183l0.099,-0.185l0.096,-0.186l0.095,-0.187l0.092,-0.188l0.09,-0.19l0.088,-0.191l0.085,-0.192l0.084,-0.193l0.081,-0.195l0.078,-0.196l0.076,-0.197l0.074,-0.198l0.072,-0.199l0.069,-0.2l0.067,-0.201l0.064,-0.203l0.062,-0.203l0.061,-0.208l0.028,-0.099l0.028,-0.103l0.028,-0.103l0.027,-0.104l0.026,-0.103l0.026,-0.104l0.025,-0.105l0.024,-0.104l0.024,-0.105l0.023,-0.105l0.023,-0.105l0.022,-0.105l0.021,-0.106l0.021,-0.106l0.02,-0.106l0.019,-0.106l0.019,-0.107l0.018,-0.106l0.017,-0.107l0.017,-0.108l0.016,-0.107l0.016,-0.108l0.014,-0.108l0.014,-0.108l0.014,-0.108l0.013,-0.109l0.012,-0.108l0.011,-0.109l0.011,-0.109l0.01,-0.11l0.009,-0.109l0.009,-0.11l0.008,-0.11l0.007,-0.11l0.007,-0.111l0.006,-0.11l0.005,-0.111l0.005,-0.111l0.004,-0.111l0.003,-0.112l0.002,-0.111l0.002,-0.112l0.001,-0.112l0.001,-0.119l0.006,-0.162l0.018,-0.161l8.204,-55.273l-0.001,-0.062l-0.002,-0.109l-0.002,-0.108l-0.003,-0.108l-0.004,-0.106l-0.005,-0.105l-0.005,-0.104l-0.006,-0.103l-0.006,-0.102l-0.007,-0.101l-0.008,-0.099l-0.009,-0.099l-0.009,-0.097l-0.009,-0.097l-0.011,-0.095l-0.011,-0.094l-0.011,-0.094l-0.012,-0.092l-0.013,-0.091l-0.013,-0.091l-0.014,-0.089l-0.015,-0.088l-0.015,-0.087l-0.015,-0.086l-0.016,-0.085l-0.017,-0.084l-0.017,-0.083l-0.018,-0.083l-0.019,-0.081l-0.018,-0.08l-0.02,-0.079l-0.019,-0.078l-0.021,-0.077l-0.021,-0.077l-0.021,-0.075l-0.022,-0.075l-0.022,-0.073l-0.023,-0.073l-0.023,-0.072l-0.024,-0.071l-0.024,-0.07l-0.025,-0.069l-0.025,-0.068l-0.025,-0.067l-0.026,-0.067l-0.026,-0.066l-0.027,-0.065l-0.027,-0.064l-0.028,-0.063l-0.028,-0.063l-0.029,-0.062l-0.028,-0.061l-0.03,-0.06l-0.029,-0.059l-0.031,-0.059l-0.03,-0.058l-0.031,-0.058l-0.031,-0.056l-0.032,-0.056l-0.032,-0.056l-0.033,-0.055l-0.033,-0.054l-0.033,-0.053l-0.034,-0.053l-0.034,-0.052l-0.035,-0.052l-0.034,-0.051l-0.036,-0.05l-0.036,-0.05l-0.036,-0.05l-0.037,-0.048l-0.037,-0.049l-0.037,-0.048l-0.038,-0.047l-0.039,-0.047l-0.038,-0.046l-0.04,-0.046l-0.04,-0.045l-0.04,-0.045l-0.04,-0.045l-0.042,-0.044l-0.041,-0.044l-0.042,-0.043l-0.043,-0.043l-0.043,-0.042l-0.043,-0.042l-0.044,-0.042l-0.045,-0.041l-0.045,-0.041l-0.046,-0.04l-0.046,-0.041l-0.047,-0.039l-0.047,-0.04l-0.047,-0.039l-0.049,-0.038l-0.049,-0.039l-0.049,-0.038l-0.05,-0.038l-0.051,-0.037l-0.051,-0.037l-0.051,-0.037l-0.053,-0.036l-0.052,-0.036l-0.054,-0.036l-0.054,-0.036l-0.055,-0.035l-0.055,-0.035l-0.056,-0.034l-0.052,-0.032l-0.119,-0.07l-0.117,-0.066l-0.12,-0.065l-0.122,-0.064l-0.125,-0.063l-0.127,-0.061l-0.13,-0.06l-0.132,-0.059l-0.135,-0.058l-0.137,-0.056l-0.14,-0.055l-0.143,-0.054l-0.145,-0.053l-0.147,-0.051l-0.15,-0.05l-0.152,-0.049l-0.155,-0.048l-0.157,-0.046l-0.16,-0.045l-0.162,-0.044l-0.165,-0.043l-0.166,-0.041l-0.169,-0.04l-0.172,-0.039l-0.173,-0.038l-0.176,-0.037l-0.178,-0.035l-0.181,-0.034l-0.182,-0.033l-0.184,-0.032l-0.187,-0.03l-0.189,-0.03l-0.191,-0.028l-0.192,-0.027l-0.195,-0.027l-0.197,-0.025l-0.199,-0.024l-0.2,-0.022l-0.203,-0.022l-0.204,-0.021l-0.206,-0.02l-0.208,-0.019l-0.21,-0.018l-0.211,-0.017l-0.214,-0.016l-0.214,-0.015l-0.217,-0.014l-0.218,-0.014l-0.22,-0.012l-0.221,-0.012l-0.223,-0.011l-0.224,-0.011l-0.226,-0.009l-0.227,-0.009l-0.228,-0.008l-0.463,-0.014l-0.468,-0.012l-0.472,-0.01l-0.478,-0.007l-0.483,-0.006l-0.487,-0.004l-0.492,-0.003l-0.496,-0.001l-0.501,-0.001l-39.114,0Z"/><g><g id="NET-2" serif:id="NET 2"><path d="M12.145,39.703l26.418,-29.059" style="fill:none;stroke:#000;stroke-width:4.5px;"/><path d="M61.04,10.644l-45.069,47.711l45.069,-47.711Z" style="fill:none;stroke:#000;stroke-width:4.5px;"/><path d="M79.844,13.655l-60.206,63.734l60.206,-63.734Z" style="fill:none;stroke:#000;stroke-width:4.5px;"/><path d="M87.336,28.64l-60.206,63.734l60.206,-63.734Z" style="fill:none;stroke:#000;stroke-width:4.5px;"/><path d="M81.691,57.532l-36.267,38.392l36.267,-38.392Z" style="fill:none;stroke:#000;stroke-width:4.5px;"/></g><g id="NET-1" serif:id="NET 1"><path d="M85.914,39.798l-26.417,-29.058" style="fill:none;stroke:#000;stroke-width:4.5px;"/><path d="M37.02,10.74l45.069,47.71l-45.069,-47.71Z" style="fill:none;stroke:#000;stroke-width:4.5px;"/><path d="M18.216,13.75l60.206,63.734l-60.206,-63.734Z" style="fill:none;stroke:#000;stroke-width:4.5px;"/><path d="M10.723,28.735l60.206,63.734l-60.206,-63.734Z" style="fill:none;stroke:#000;stroke-width:4.5px;"/><path d="M16.369,57.628l36.266,38.391l-36.266,-38.391Z" style="fill:none;stroke:#000;stroke-width:4.5px;"/></g></g><path d="M92.815,7.305c0,-2.362 -1.918,-4.279 -4.279,-4.279l-43.021,2.314l-38.051,-2.314c-2.361,0 -4.279,1.917 -4.279,4.279l0,8.557c0,2.362 1.918,4.279 4.279,4.279c0,0 25.344,2.314 38.051,2.314c13.512,0 43.021,-2.314 43.021,-2.314c2.361,0 4.279,-1.917 4.279,-4.279l0,-8.557Z" style="fill:#e6554e;stroke:#000;stroke-width:4.5px;"/></g></svg>