<?xml version="1.0" encoding="UTF-8" standalone="no"?><!DOCTYPE svg PUBLIC "-//W3C//DTD SVG 1.1//EN" "http://www.w3.org/Graphics/SVG/1.1/DTD/svg11.dtd"><svg width="100%" height="100%" viewBox="0 0 92 96" version="1.1" xmlns="http://www.w3.org/2000/svg" xmlns:xlink="http://www.w3.org/1999/xlink" xml:space="preserve" xmlns:serif="http://www.serif.com/" style="fill-rule:evenodd;clip-rule:evenodd;stroke-linecap:round;stroke-linejoin:round;stroke-miterlimit:1.5;"><g id="TRASH-highlight" serif:id="TRASH highlight"><path id="TRASH-highlight1" serif:id="TRASH highlight" d="M85.745,19.974c0,-10.795 -8.763,-11.33 -19.557,-11.33l-39.116,0c-10.794,0 -19.558,0.535 -19.558,11.33l8.229,55.442c0,10.794 8.763,19.558 19.558,19.558l22.658,0c10.794,0 19.558,-8.764 19.558,-19.558l8.228,-55.442Z" style="fill:#e4423a;fill-opacity:0;"/><path d="M66.693,8.145l0.502,0.001l0.5,0.003l0.496,0.004l0.493,0.006l0.489,0.008l0.486,0.01l0.482,0.012l0.478,0.015l0.238,0.008l0.236,0.009l0.236,0.01l0.234,0.011l0.233,0.011l0.232,0.013l0.231,0.013l0.23,0.014l0.229,0.015l0.228,0.016l0.226,0.017l0.225,0.019l0.224,0.019l0.223,0.02l0.221,0.021l0.22,0.023l0.219,0.023l0.218,0.025l0.216,0.026l0.215,0.028l0.213,0.028l0.212,0.03l0.211,0.031l0.209,0.033l0.208,0.034l0.207,0.036l0.205,0.037l0.203,0.038l0.202,0.04l0.2,0.042l0.199,0.043l0.197,0.045l0.196,0.046l0.194,0.049l0.193,0.05l0.191,0.051l0.189,0.054l0.187,0.055l0.186,0.057l0.185,0.06l0.182,0.061l0.181,0.063l0.179,0.065l0.177,0.067l0.175,0.069l0.174,0.071l0.171,0.073l0.17,0.076l0.168,0.078l0.166,0.08l0.164,0.082l0.162,0.085l0.16,0.086l0.158,0.09l0.155,0.091l0.078,0.047l0.077,0.048l0.076,0.048l0.075,0.048l0.075,0.05l0.075,0.049l0.074,0.051l0.073,0.051l0.073,0.052l0.073,0.052l0.071,0.054l0.072,0.053l0.07,0.055l0.07,0.055l0.07,0.056l0.069,0.056l0.068,0.057l0.068,0.058l0.067,0.058l0.066,0.059l0.066,0.06l0.066,0.061l0.065,0.061l0.064,0.062l0.063,0.062l0.063,0.064l0.062,0.063l0.062,0.065l0.061,0.066l0.06,0.066l0.06,0.066l0.059,0.068l0.059,0.068l0.057,0.069l0.057,0.07l0.057,0.07l0.056,0.071l0.055,0.072l0.054,0.072l0.054,0.074l0.053,0.074l0.053,0.074l0.051,0.076l0.051,0.076l0.051,0.077l0.049,0.078l0.049,0.078l0.048,0.079l0.048,0.08l0.047,0.081l0.046,0.081l0.045,0.082l0.045,0.083l0.044,0.084l0.043,0.084l0.042,0.085l0.042,0.086l0.041,0.087l0.04,0.087l0.04,0.088l0.039,0.089l0.038,0.09l0.037,0.09l0.037,0.091l0.035,0.092l0.036,0.093l0.034,0.094l0.033,0.094l0.033,0.095l0.032,0.096l0.031,0.096l0.031,0.098l0.03,0.098l0.029,0.099l0.028,0.1l0.027,0.1l0.027,0.102l0.026,0.102l0.025,0.103l0.024,0.104l0.024,0.104l0.023,0.106l0.022,0.106l0.021,0.107l0.021,0.107l0.019,0.109l0.019,0.11l0.018,0.11l0.018,0.111l0.016,0.112l0.016,0.113l0.015,0.113l0.014,0.115l0.013,0.115l0.013,0.116l0.012,0.117l0.011,0.118l0.01,0.118l0.009,0.12l0.009,0.12l0.007,0.122l0.007,0.122l0.006,0.123l0.006,0.124l0.004,0.124l0.004,0.126l0.003,0.127l0.002,0.127l0.001,0.128l0,0.128l-0.005,0.075l-8.223,55.407l-0.001,0.092l-0.001,0.129l-0.002,0.129l-0.003,0.129l-0.004,0.129l-0.004,0.128l-0.005,0.129l-0.006,0.128l-0.007,0.128l-0.008,0.128l-0.009,0.127l-0.009,0.128l-0.01,0.127l-0.011,0.127l-0.011,0.127l-0.013,0.126l-0.013,0.126l-0.014,0.126l-0.015,0.126l-0.016,0.126l-0.016,0.125l-0.017,0.125l-0.018,0.125l-0.019,0.124l-0.019,0.125l-0.02,0.124l-0.021,0.124l-0.022,0.123l-0.022,0.123l-0.023,0.123l-0.024,0.123l-0.025,0.123l-0.026,0.122l-0.026,0.122l-0.027,0.122l-0.027,0.121l-0.029,0.121l-0.029,0.121l-0.03,0.121l-0.03,0.12l-0.032,0.12l-0.032,0.12l-0.032,0.119l-0.034,0.12l-0.069,0.237l-0.072,0.236l-0.075,0.235l-0.077,0.233l-0.08,0.233l-0.083,0.231l-0.086,0.229l-0.089,0.229l-0.091,0.227l-0.094,0.226l-0.096,0.224l-0.1,0.223l-0.101,0.221l-0.105,0.22l-0.107,0.219l-0.109,0.217l-0.112,0.215l-0.115,0.214l-0.117,0.212l-0.12,0.211l-0.122,0.209l-0.124,0.208l-0.127,0.206l-0.129,0.204l-0.132,0.203l-0.134,0.201l-0.137,0.199l-0.138,0.197l-0.141,0.196l-0.144,0.194l-0.145,0.192l-0.148,0.191l-0.15,0.188l-0.152,0.187l-0.155,0.185l-0.156,0.183l-0.159,0.181l-0.161,0.179l-0.163,0.177l-0.165,0.175l-0.167,0.173l-0.169,0.171l-0.171,0.169l-0.173,0.168l-0.175,0.165l-0.177,0.162l-0.18,0.161l-0.181,0.159l-0.182,0.157l-0.185,0.154l-0.187,0.152l-0.188,0.15l-0.191,0.148l-0.192,0.146l-0.194,0.143l-0.196,0.141l-0.197,0.139l-0.199,0.136l-0.201,0.134l-0.203,0.132l-0.204,0.129l-0.206,0.127l-0.208,0.124l-0.209,0.122l-0.211,0.12l-0.212,0.117l-0.214,0.115l-0.216,0.112l-0.217,0.109l-0.218,0.107l-0.22,0.105l-0.221,0.102l-0.223,0.099l-0.225,0.096l-0.225,0.094l-0.227,0.091l-0.229,0.089l-0.229,0.086l-0.231,0.083l-0.233,0.08l-0.233,0.078l-0.235,0.074l-0.236,0.072l-0.237,0.069l-0.12,0.034l-0.119,0.032l-0.12,0.033l-0.12,0.031l-0.12,0.03l-0.121,0.03l-0.121,0.029l-0.121,0.029l-0.121,0.027l-0.122,0.027l-0.122,0.027l-0.122,0.025l-0.123,0.025l-0.123,0.024l-0.123,0.023l-0.123,0.022l-0.124,0.022l-0.123,0.021l-0.124,0.02l-0.125,0.02l-0.124,0.018l-0.125,0.018l-0.125,0.017l-0.126,0.017l-0.125,0.015l-0.126,0.015l-0.126,0.014l-0.126,0.013l-0.127,0.013l-0.126,0.011l-0.127,0.011l-0.127,0.01l-0.128,0.01l-0.127,0.008l-0.128,0.008l-0.128,0.007l-0.128,0.006l-0.129,0.005l-0.128,0.005l-0.129,0.003l-0.129,0.003l-0.129,0.002l-0.13,0.001l-0.128,0.001l-22.66,0l-0.129,-0.001l-0.129,-0.001l-0.13,-0.002l-0.129,-0.003l-0.128,-0.003l-0.129,-0.005l-0.128,-0.005l-0.129,-0.006l-0.128,-0.007l-0.127,-0.008l-0.128,-0.008l-0.127,-0.01l-0.127,-0.01l-0.127,-0.011l-0.127,-0.011l-0.126,-0.013l-0.127,-0.013l-0.126,-0.014l-0.125,-0.015l-0.126,-0.015l-0.125,-0.017l-0.125,-0.017l-0.125,-0.018l-0.125,-0.018l-0.124,-0.02l-0.124,-0.02l-0.124,-0.021l-0.124,-0.022l-0.123,-0.022l-0.123,-0.023l-0.123,-0.024l-0.122,-0.025l-0.123,-0.025l-0.121,-0.027l-0.122,-0.027l-0.122,-0.027l-0.121,-0.029l-0.121,-0.029l-0.12,-0.03l-0.12,-0.03l-0.121,-0.031l-0.119,-0.033l-0.12,-0.032l-0.12,-0.034l-0.236,-0.069l-0.236,-0.072l-0.235,-0.074l-0.234,-0.078l-0.232,-0.08l-0.231,-0.083l-0.23,-0.086l-0.228,-0.089l-0.227,-0.091l-0.226,-0.094l-0.224,-0.096l-0.223,-0.099l-0.222,-0.102l-0.22,-0.105l-0.218,-0.107l-0.217,-0.109l-0.215,-0.112l-0.214,-0.115l-0.213,-0.117l-0.211,-0.12l-0.209,-0.122l-0.207,-0.124l-0.206,-0.127l-0.205,-0.129l-0.202,-0.132l-0.201,-0.134l-0.199,-0.136l-0.198,-0.139l-0.196,-0.141l-0.194,-0.143l-0.192,-0.146l-0.19,-0.148l-0.189,-0.15l-0.186,-0.152l-0.185,-0.154l-0.183,-0.157l-0.181,-0.159l-0.179,-0.161l-0.177,-0.162l-0.175,-0.165l-0.174,-0.168l-0.171,-0.169l-0.169,-0.171l-0.167,-0.173l-0.165,-0.175l-0.163,-0.177l-0.161,-0.179l-0.158,-0.181l-0.157,-0.183l-0.154,-0.185l-0.153,-0.187l-0.15,-0.188l-0.147,-0.191l-0.146,-0.192l-0.143,-0.194l-0.141,-0.196l-0.139,-0.197l-0.136,-0.199l-0.134,-0.201l-0.132,-0.203l-0.129,-0.204l-0.127,-0.206l-0.125,-0.208l-0.122,-0.209l-0.119,-0.211l-0.118,-0.212l-0.114,-0.214l-0.112,-0.215l-0.11,-0.217l-0.107,-0.219l-0.104,-0.22l-0.102,-0.221l-0.099,-0.223l-0.097,-0.224l-0.094,-0.226l-0.091,-0.227l-0.088,-0.229l-0.086,-0.229l-0.083,-0.231l-0.081,-0.233l-0.077,-0.233l-0.075,-0.235l-0.072,-0.236l-0.069,-0.237l-0.033,-0.12l-0.033,-0.119l-0.032,-0.12l-0.031,-0.12l-0.031,-0.12l-0.03,-0.121l-0.029,-0.121l-0.028,-0.121l-0.028,-0.121l-0.027,-0.122l-0.026,-0.122l-0.025,-0.122l-0.025,-0.123l-0.024,-0.123l-0.023,-0.123l-0.023,-0.123l-0.021,-0.123l-0.021,-0.124l-0.021,-0.124l-0.019,-0.125l-0.019,-0.124l-0.018,-0.125l-0.017,-0.125l-0.016,-0.125l-0.016,-0.126l-0.014,-0.126l-0.014,-0.126l-0.014,-0.126l-0.012,-0.126l-0.012,-0.127l-0.011,-0.127l-0.01,-0.127l-0.009,-0.128l-0.009,-0.127l-0.007,-0.128l-0.007,-0.128l-0.006,-0.128l-0.006,-0.129l-0.004,-0.128l-0.004,-0.129l-0.003,-0.129l-0.002,-0.129l-0.001,-0.129l0,-0.092l-8.224,-55.407l-0.005,-0.075l0,-0.128l0.002,-0.128l0.002,-0.127l0.003,-0.127l0.003,-0.126l0.005,-0.124l0.005,-0.124l0.006,-0.123l0.007,-0.122l0.008,-0.122l0.008,-0.12l0.01,-0.12l0.01,-0.118l0.011,-0.118l0.012,-0.117l0.012,-0.116l0.014,-0.115l0.014,-0.115l0.015,-0.113l0.015,-0.113l0.017,-0.112l0.017,-0.111l0.018,-0.11l0.019,-0.11l0.02,-0.109l0.02,-0.107l0.022,-0.107l0.022,-0.106l0.022,-0.106l0.024,-0.104l0.024,-0.104l0.025,-0.103l0.026,-0.102l0.027,-0.102l0.027,-0.1l0.029,-0.1l0.029,-0.099l0.029,-0.098l0.031,-0.098l0.031,-0.096l0.032,-0.096l0.033,-0.095l0.034,-0.094l0.034,-0.094l0.035,-0.093l0.036,-0.092l0.036,-0.091l0.038,-0.09l0.038,-0.09l0.038,-0.089l0.04,-0.088l0.04,-0.087l0.041,-0.087l0.042,-0.086l0.042,-0.085l0.044,-0.084l0.044,-0.084l0.044,-0.083l0.046,-0.082l0.046,-0.081l0.047,-0.081l0.047,-0.08l0.048,-0.079l0.049,-0.078l0.05,-0.078l0.05,-0.077l0.051,-0.076l0.052,-0.076l0.052,-0.074l0.053,-0.074l0.054,-0.074l0.055,-0.072l0.055,-0.072l0.055,-0.071l0.057,-0.07l0.057,-0.07l0.058,-0.069l0.058,-0.068l0.059,-0.068l0.06,-0.066l0.06,-0.066l0.061,-0.066l0.062,-0.065l0.062,-0.063l0.063,-0.064l0.064,-0.062l0.064,-0.062l0.065,-0.061l0.065,-0.061l0.066,-0.06l0.066,-0.059l0.068,-0.058l0.067,-0.058l0.069,-0.057l0.069,-0.056l0.069,-0.056l0.07,-0.055l0.071,-0.055l0.071,-0.053l0.072,-0.054l0.072,-0.052l0.073,-0.052l0.074,-0.051l0.074,-0.051l0.074,-0.049l0.075,-0.05l0.076,-0.048l0.076,-0.048l0.076,-0.048l0.079,-0.047l0.155,-0.091l0.158,-0.09l0.16,-0.086l0.162,-0.085l0.164,-0.082l0.166,-0.08l0.167,-0.078l0.17,-0.076l0.172,-0.073l0.173,-0.071l0.176,-0.069l0.177,-0.067l0.179,-0.065l0.18,-0.063l0.183,-0.061l0.184,-0.06l0.186,-0.057l0.187,-0.055l0.19,-0.054l0.191,-0.051l0.192,-0.05l0.194,-0.049l0.196,-0.046l0.197,-0.045l0.199,-0.043l0.201,-0.042l0.201,-0.04l0.204,-0.038l0.205,-0.037l0.206,-0.036l0.208,-0.034l0.209,-0.033l0.211,-0.031l0.212,-0.03l0.214,-0.028l0.214,-0.028l0.217,-0.026l0.217,-0.025l0.219,-0.023l0.22,-0.023l0.222,-0.021l0.222,-0.02l0.224,-0.019l0.225,-0.019l0.227,-0.017l0.227,-0.016l0.229,-0.015l0.23,-0.014l0.231,-0.013l0.232,-0.013l0.233,-0.011l0.235,-0.011l0.235,-0.01l0.237,-0.009l0.238,-0.008l0.477,-0.015l0.482,-0.012l0.486,-0.01l0.489,-0.008l0.493,-0.006l0.497,-0.004l0.499,-0.003l0.502,-0.001l0.506,-0.001l39.116,0l0.505,0.001Zm-39.621,0.999l-0.504,0.001l-0.5,0.001l-0.497,0.003l-0.493,0.004l-0.489,0.006l-0.485,0.008l-0.481,0.009l-0.477,0.012l-0.472,0.015l-0.234,0.008l-0.233,0.009l-0.232,0.01l-0.231,0.011l-0.23,0.011l-0.228,0.012l-0.227,0.013l-0.225,0.014l-0.225,0.015l-0.222,0.016l-0.222,0.016l-0.22,0.018l-0.219,0.019l-0.217,0.02l-0.216,0.02l-0.215,0.022l-0.212,0.023l-0.212,0.024l-0.21,0.026l-0.208,0.026l-0.207,0.028l-0.205,0.029l-0.203,0.03l-0.202,0.032l-0.2,0.032l-0.199,0.034l-0.196,0.036l-0.195,0.037l-0.194,0.038l-0.191,0.04l-0.19,0.041l-0.188,0.043l-0.186,0.044l-0.184,0.046l-0.182,0.047l-0.18,0.049l-0.179,0.051l-0.176,0.052l-0.175,0.053l-0.173,0.056l-0.17,0.057l-0.169,0.059l-0.166,0.06l-0.165,0.062l-0.162,0.065l-0.161,0.065l-0.158,0.068l-0.156,0.069l-0.154,0.072l-0.152,0.073l-0.15,0.075l-0.147,0.077l-0.146,0.079l-0.143,0.081l-0.142,0.084l-0.068,0.041l-0.07,0.043l-0.068,0.043l-0.068,0.044l-0.067,0.044l-0.067,0.045l-0.067,0.045l-0.065,0.046l-0.066,0.046l-0.064,0.047l-0.064,0.048l-0.064,0.047l-0.063,0.049l-0.062,0.049l-0.062,0.05l-0.061,0.05l-0.061,0.05l-0.06,0.052l-0.059,0.051l-0.059,0.053l-0.059,0.053l-0.057,0.053l-0.058,0.054l-0.056,0.055l-0.056,0.055l-0.056,0.056l-0.055,0.056l-0.054,0.057l-0.054,0.058l-0.053,0.058l-0.053,0.059l-0.052,0.059l-0.051,0.061l-0.051,0.06l-0.05,0.062l-0.05,0.062l-0.049,0.062l-0.049,0.063l-0.048,0.064l-0.047,0.065l-0.047,0.065l-0.046,0.066l-0.046,0.067l-0.045,0.067l-0.044,0.068l-0.044,0.069l-0.044,0.069l-0.042,0.07l-0.042,0.071l-0.042,0.071l-0.041,0.072l-0.04,0.073l-0.04,0.074l-0.039,0.074l-0.038,0.075l-0.038,0.076l-0.037,0.077l-0.037,0.077l-0.036,0.078l-0.035,0.079l-0.035,0.079l-0.034,0.081l-0.033,0.081l-0.033,0.082l-0.032,0.083l-0.032,0.083l-0.031,0.084l-0.03,0.086l-0.03,0.086l-0.029,0.086l-0.028,0.088l-0.028,0.088l-0.027,0.09l-0.026,0.09l-0.026,0.091l-0.025,0.091l-0.024,0.093l-0.024,0.093l-0.023,0.095l-0.023,0.095l-0.021,0.096l-0.021,0.097l-0.02,0.098l-0.02,0.098l-0.019,0.1l-0.018,0.1l-0.018,0.102l-0.016,0.102l-0.016,0.103l-0.016,0.104l-0.014,0.105l-0.014,0.106l-0.014,0.107l-0.012,0.107l-0.012,0.109l-0.011,0.109l-0.01,0.111l-0.01,0.111l-0.008,0.112l-0.008,0.114l-0.008,0.114l-0.006,0.115l-0.006,0.116l-0.005,0.117l-0.004,0.118l-0.004,0.119l-0.003,0.12l-0.001,0.121l-0.002,0.122l0,0.086l8.223,55.406l0.006,0.071l0,0.125l0.001,0.123l0.002,0.123l0.003,0.123l0.003,0.122l0.005,0.122l0.005,0.123l0.006,0.121l0.006,0.122l0.007,0.121l0.009,0.122l0.008,0.121l0.01,0.121l0.01,0.12l0.011,0.121l0.012,0.12l0.013,0.12l0.013,0.12l0.014,0.119l0.015,0.119l0.016,0.119l0.016,0.119l0.017,0.119l0.018,0.118l0.018,0.118l0.019,0.118l0.02,0.118l0.021,0.117l0.021,0.117l0.022,0.117l0.023,0.117l0.023,0.116l0.024,0.116l0.025,0.116l0.026,0.116l0.026,0.115l0.027,0.115l0.028,0.115l0.028,0.114l0.029,0.115l0.03,0.114l0.03,0.113l0.031,0.114l0.032,0.112l0.066,0.226l0.068,0.225l0.071,0.223l0.074,0.222l0.076,0.22l0.079,0.22l0.081,0.218l0.084,0.217l0.087,0.215l0.089,0.215l0.092,0.213l0.094,0.211l0.097,0.211l0.099,0.209l0.102,0.207l0.104,0.206l0.106,0.205l0.109,0.203l0.111,0.202l0.114,0.2l0.116,0.199l0.118,0.197l0.121,0.196l0.123,0.194l0.125,0.193l0.127,0.191l0.13,0.189l0.132,0.188l0.134,0.186l0.136,0.184l0.138,0.183l0.141,0.181l0.142,0.179l0.145,0.177l0.147,0.176l0.148,0.174l0.151,0.172l0.153,0.17l0.155,0.168l0.157,0.167l0.159,0.164l0.16,0.163l0.163,0.161l0.165,0.159l0.166,0.157l0.169,0.154l0.17,0.153l0.172,0.151l0.174,0.149l0.175,0.147l0.178,0.144l0.179,0.143l0.181,0.14l0.182,0.139l0.185,0.136l0.186,0.134l0.187,0.132l0.19,0.129l0.191,0.128l0.192,0.125l0.194,0.123l0.196,0.12l0.197,0.119l0.199,0.116l0.2,0.113l0.202,0.111l0.203,0.109l0.205,0.107l0.206,0.104l0.208,0.102l0.209,0.099l0.21,0.096l0.212,0.095l0.213,0.091l0.214,0.09l0.216,0.086l0.217,0.084l0.218,0.082l0.219,0.079l0.221,0.076l0.222,0.074l0.223,0.07l0.224,0.069l0.226,0.066l0.113,0.031l0.113,0.031l0.114,0.031l0.114,0.029l0.114,0.029l0.115,0.029l0.114,0.027l0.116,0.027l0.115,0.027l0.115,0.025l0.116,0.025l0.116,0.024l0.117,0.024l0.116,0.023l0.117,0.022l0.117,0.021l0.118,0.02l0.117,0.02l0.118,0.02l0.118,0.018l0.119,0.018l0.118,0.017l0.119,0.016l0.119,0.016l0.119,0.014l0.12,0.014l0.12,0.014l0.12,0.012l0.12,0.012l0.12,0.011l0.121,0.011l0.121,0.009l0.121,0.009l0.121,0.008l0.121,0.007l0.122,0.007l0.122,0.006l0.122,0.005l0.122,0.004l0.123,0.004l0.122,0.002l0.123,0.002l0.123,0.001l0.124,0.001l22.657,0l0.124,-0.001l0.123,-0.001l0.123,-0.002l0.123,-0.002l0.122,-0.004l0.122,-0.004l0.122,-0.005l0.122,-0.006l0.122,-0.007l0.121,-0.007l0.122,-0.008l0.121,-0.009l0.121,-0.009l0.12,-0.011l0.121,-0.011l0.12,-0.012l0.12,-0.012l0.119,-0.014l0.12,-0.014l0.119,-0.014l0.119,-0.016l0.119,-0.016l0.119,-0.017l0.118,-0.018l0.118,-0.018l0.118,-0.02l0.118,-0.02l0.117,-0.02l0.117,-0.021l0.117,-0.022l0.117,-0.023l0.116,-0.024l0.116,-0.024l0.116,-0.025l0.116,-0.025l0.115,-0.027l0.115,-0.027l0.115,-0.027l0.114,-0.029l0.115,-0.029l0.113,-0.029l0.114,-0.031l0.114,-0.031l0.112,-0.031l0.226,-0.066l0.224,-0.069l0.224,-0.07l0.221,-0.074l0.221,-0.076l0.22,-0.079l0.218,-0.082l0.217,-0.084l0.215,-0.086l0.215,-0.09l0.213,-0.091l0.211,-0.095l0.211,-0.096l0.209,-0.099l0.207,-0.102l0.206,-0.104l0.205,-0.107l0.203,-0.109l0.202,-0.111l0.2,-0.113l0.199,-0.116l0.197,-0.119l0.196,-0.12l0.194,-0.123l0.193,-0.125l0.191,-0.128l0.189,-0.129l0.188,-0.132l0.186,-0.134l0.184,-0.136l0.183,-0.139l0.181,-0.14l0.179,-0.143l0.177,-0.144l0.176,-0.147l0.174,-0.149l0.172,-0.151l0.17,-0.153l0.168,-0.154l0.167,-0.157l0.164,-0.159l0.163,-0.161l0.161,-0.163l0.159,-0.164l0.156,-0.167l0.155,-0.168l0.153,-0.17l0.151,-0.172l0.149,-0.174l0.147,-0.176l0.144,-0.177l0.143,-0.179l0.14,-0.181l0.139,-0.183l0.136,-0.184l0.134,-0.186l0.132,-0.188l0.129,-0.189l0.128,-0.191l0.125,-0.193l0.123,-0.194l0.12,-0.196l0.119,-0.197l0.115,-0.199l0.114,-0.2l0.111,-0.202l0.109,-0.203l0.107,-0.205l0.104,-0.206l0.101,-0.207l0.1,-0.209l0.096,-0.211l0.095,-0.211l0.091,-0.213l0.089,-0.215l0.087,-0.215l0.084,-0.217l0.082,-0.218l0.079,-0.22l0.076,-0.22l0.073,-0.222l0.071,-0.223l0.069,-0.225l0.065,-0.226l0.032,-0.112l0.031,-0.114l0.031,-0.113l0.029,-0.114l0.029,-0.115l0.029,-0.114l0.027,-0.115l0.027,-0.115l0.027,-0.115l0.025,-0.116l0.025,-0.116l0.024,-0.116l0.024,-0.116l0.022,-0.117l0.022,-0.117l0.022,-0.117l0.02,-0.117l0.02,-0.118l0.019,-0.118l0.019,-0.118l0.018,-0.118l0.017,-0.119l0.016,-0.119l0.015,-0.119l0.015,-0.119l0.014,-0.119l0.014,-0.12l0.012,-0.12l0.012,-0.12l0.011,-0.121l0.01,-0.12l0.01,-0.121l0.009,-0.121l0.008,-0.121l0.007,-0.122l0.007,-0.122l0.006,-0.121l0.005,-0.123l0.004,-0.122l0.003,-0.122l0.003,-0.123l0.002,-0.123l0.001,-0.123l0.001,-0.125l0.005,-0.071l8.223,-55.406l0,-0.086l-0.001,-0.122l-0.002,-0.121l-0.003,-0.12l-0.003,-0.119l-0.005,-0.118l-0.005,-0.117l-0.005,-0.116l-0.007,-0.115l-0.007,-0.114l-0.008,-0.114l-0.009,-0.112l-0.01,-0.111l-0.01,-0.111l-0.011,-0.109l-0.012,-0.109l-0.012,-0.107l-0.013,-0.107l-0.014,-0.106l-0.015,-0.105l-0.015,-0.104l-0.016,-0.103l-0.017,-0.102l-0.017,-0.102l-0.019,-0.1l-0.019,-0.1l-0.019,-0.098l-0.02,-0.098l-0.021,-0.097l-0.022,-0.096l-0.022,-0.095l-0.023,-0.095l-0.024,-0.093l-0.024,-0.093l-0.026,-0.091l-0.025,-0.091l-0.027,-0.09l-0.027,-0.09l-0.027,-0.088l-0.029,-0.088l-0.029,-0.086l-0.029,-0.086l-0.031,-0.086l-0.031,-0.084l-0.031,-0.083l-0.032,-0.083l-0.033,-0.082l-0.034,-0.081l-0.034,-0.081l-0.035,-0.079l-0.035,-0.079l-0.036,-0.078l-0.037,-0.078l-0.037,-0.076l-0.038,-0.076l-0.038,-0.075l-0.039,-0.074l-0.04,-0.074l-0.04,-0.073l-0.041,-0.072l-0.041,-0.071l-0.042,-0.071l-0.043,-0.07l-0.043,-0.069l-0.044,-0.069l-0.045,-0.068l-0.045,-0.067l-0.045,-0.067l-0.047,-0.066l-0.046,-0.065l-0.048,-0.065l-0.048,-0.064l-0.048,-0.063l-0.049,-0.062l-0.05,-0.062l-0.05,-0.062l-0.051,-0.06l-0.052,-0.061l-0.052,-0.059l-0.052,-0.059l-0.054,-0.058l-0.053,-0.058l-0.055,-0.057l-0.055,-0.056l-0.055,-0.056l-0.056,-0.055l-0.057,-0.055l-0.057,-0.054l-0.058,-0.053l-0.058,-0.053l-0.059,-0.053l-0.06,-0.051l-0.06,-0.052l-0.061,-0.05l-0.061,-0.05l-0.062,-0.05l-0.062,-0.049l-0.063,-0.049l-0.063,-0.047l-0.064,-0.048l-0.065,-0.047l-0.065,-0.046l-0.066,-0.046l-0.066,-0.045l-0.067,-0.045l-0.068,-0.044l-0.068,-0.044l-0.068,-0.043l-0.069,-0.043l-0.069,-0.041l-0.142,-0.084l-0.143,-0.081l-0.145,-0.079l-0.148,-0.077l-0.15,-0.075l-0.151,-0.073l-0.154,-0.072l-0.157,-0.069l-0.158,-0.068l-0.16,-0.065l-0.163,-0.065l-0.164,-0.062l-0.167,-0.06l-0.168,-0.059l-0.171,-0.057l-0.173,-0.056l-0.174,-0.053l-0.177,-0.052l-0.178,-0.051l-0.181,-0.049l-0.182,-0.047l-0.184,-0.046l-0.186,-0.044l-0.188,-0.043l-0.19,-0.041l-0.191,-0.04l-0.193,-0.038l-0.195,-0.037l-0.197,-0.036l-0.198,-0.034l-0.201,-0.032l-0.201,-0.032l-0.204,-0.03l-0.205,-0.029l-0.207,-0.028l-0.208,-0.026l-0.21,-0.026l-0.211,-0.024l-0.213,-0.023l-0.214,-0.022l-0.216,-0.02l-0.218,-0.02l-0.218,-0.019l-0.221,-0.018l-0.221,-0.016l-0.223,-0.016l-0.224,-0.015l-0.226,-0.014l-0.227,-0.013l-0.228,-0.012l-0.23,-0.011l-0.23,-0.011l-0.232,-0.01l-0.233,-0.009l-0.234,-0.008l-0.473,-0.015l-0.477,-0.012l-0.481,-0.009l-0.485,-0.008l-0.489,-0.006l-0.493,-0.004l-0.497,-0.003l-0.5,-0.001l-0.504,-0.001l-39.115,0Z" style="fill:#e6554e;"/><g><g id="NET-2" serif:id="NET 2"><path d="M10.145,37.703l26.418,-29.059" style="fill:none;stroke:#e6554e;stroke-width:0.45px;"/><path d="M59.04,8.644l-45.069,47.711l45.069,-47.711Z" style="fill:none;stroke:#e6554e;stroke-width:0.45px;"/><path d="M77.844,11.655l-60.206,63.734l60.206,-63.734Z" style="fill:none;stroke:#e6554e;stroke-width:0.45px;"/><path d="M85.336,26.64l-60.206,63.734l60.206,-63.734Z" style="fill:none;stroke:#e6554e;stroke-width:0.45px;"/><path d="M79.691,55.532l-36.267,38.392l36.267,-38.392Z" style="fill:none;stroke:#e6554e;stroke-width:0.45px;"/></g><g id="NET-1" serif:id="NET 1"><path d="M83.914,37.798l-26.417,-29.058" style="fill:none;stroke:#e6554e;stroke-width:0.45px;"/><path d="M35.02,8.74l45.069,47.71l-45.069,-47.71Z" style="fill:none;stroke:#e6554e;stroke-width:0.45px;"/><path d="M16.216,11.75l60.206,63.734l-60.206,-63.734Z" style="fill:none;stroke:#e6554e;stroke-width:0.45px;"/><path d="M8.723,26.735l60.206,63.734l-60.206,-63.734Z" style="fill:none;stroke:#e6554e;stroke-width:0.45px;"/><path d="M14.369,55.628l36.266,38.391l-36.266,-38.391Z" style="fill:none;stroke:#e6554e;stroke-width:0.45px;"/></g></g><path d="M90.815,5.305c0,-2.362 -1.918,-4.279 -4.279,-4.279l-43.021,2.314l-38.051,-2.314c-2.361,0 -4.279,1.917 -4.279,4.279l0,8.557c0,2.362 1.918,4.279 4.279,4.279c0,0 25.344,2.314 38.051,2.314c13.512,0 43.021,-2.314 43.021,-2.314c2.361,0 4.279,-1.917 4.279,-4.279l0,-8.557Z" style="fill:#e6554e;stroke:#e6554e;stroke-width:0.45px;"/></g></svg>